<svg width="360" height="148" viewBox="0 0 360 148" fill="none" xmlns="http://www.w3.org/2000/svg">
<g opacity="0.2">
<path d="M56.0639 67.7882C56.0639 67.6156 55.8091 67.5293 55.5517 67.273C45.3296 60.1588 27.3507 59.131 16.1041 50.7326C11.6731 47.4764 9.54336 43.9638 9.54336 40.1922C9.54336 37.0222 11.0776 33.766 14.0602 30.337C16.6996 27.2508 19.6822 24.5097 22.9197 22.025C34.3378 13.3678 46.6064 6.42624 60.4949 2.4847C64.4137 1.37049 69.8666 0 74.6383 0C76.2557 0 77.79 0.170016 79.1525 0.515244C83.5836 1.62683 85.2036 4.45678 85.2036 7.62675C85.2036 10.1978 84.1817 12.9414 82.8165 15.4261C79.579 21.2534 75.1506 26.2229 70.3789 30.8523C69.526 31.7939 68.5899 32.4791 68.1634 33.7659C67.8228 34.7075 66.3743 35.7354 65.095 35.7354C64.4137 35.7354 63.8182 35.4791 63.3917 34.9638C62.9653 34.5349 62.8795 34.0223 62.8795 33.5933C62.8795 32.3928 63.8182 31.3649 64.7543 30.5933C69.695 26.3092 80.0913 15.4261 80.8584 8.14199V7.71304C80.8584 4.71307 77.9616 3.85519 74.3835 3.85519C70.2931 3.85519 65.3498 5.0557 63.5608 5.57094C46.778 10.1114 31.9507 18.1671 19.0867 29.908C17.2118 31.5375 15.5918 33.3369 14.2292 35.479C13.2073 37.1922 12.7808 38.7353 12.7808 40.1922C12.7808 44.5626 16.7854 47.9052 21.0448 50.3036C31.5268 56.3899 47.2018 58.532 58.7059 65.8161C59.0465 66.0724 59.3872 66.1587 59.7278 66.1587C60.0685 66.1587 60.3233 66.0724 60.6639 65.9861C65.4356 64.2729 69.526 62.9024 74.2118 62.9024C75.5744 62.9024 77.0228 62.9888 78.5571 63.2451C80.8584 63.674 82.7333 64.2729 83.5004 67.2729H83.4146C82.3926 67.2729 82.9023 65.3872 80.0055 64.5293C78.4713 64.103 76.8539 63.9303 75.2338 63.9303C70.548 63.9303 65.6073 65.3872 61.6027 67.0166C61.3453 67.1003 61.2621 67.2729 61.2621 67.3592C61.2621 67.415 61.2898 67.4717 61.3453 67.5293C64.3279 70.1003 69.4402 74.1281 69.4402 81.4986C69.4402 85.8691 67.6511 91.3537 62.453 98.4679C54.5297 109.181 38.5115 122.721 22.8338 127.005C19.5964 127.863 16.4447 128.376 13.2931 128.376C10.9918 128.376 8.77624 128.12 6.56073 127.518C1.96068 126.234 0 122.206 0 118.178C0 116.379 0.42647 114.493 1.10777 112.95C8.09494 96.6684 39.7908 76.1865 55.7233 68.0445C55.9781 67.9582 56.0639 67.8719 56.0639 67.7882ZM3.32328 111.836C2.21551 113.894 1.62003 116.206 1.62003 118.435C1.62003 122.12 3.32328 125.462 7.58268 126.49C9.37175 127.005 11.504 127.175 13.6337 127.175C16.8712 127.175 20.1945 126.663 22.6648 125.978C37.4895 121.434 51.8877 110.122 61.1762 97.6963C65.2666 92.1253 67.9918 86.897 67.9918 81.9275C67.9918 77.3844 65.6931 73.014 59.8968 68.9024C59.473 68.6435 58.9607 68.3872 58.4484 68.3872C58.1936 68.3872 57.853 68.4735 57.5981 68.6435C42.7734 76.6992 10.8201 98.0389 3.32325 111.836L3.32328 111.836Z" fill="#FFC255"/>
<path d="M57.2627 42.4206C56.0691 42.4206 55.8143 42.078 55.5594 41.649C55.4736 41.479 55.3878 41.2201 55.3878 41.0501C55.3878 40.4485 55.8143 39.7633 57.4343 39.2506C59.8188 38.3928 62.1202 38.2201 64.5905 38.2201H69.2764C78.2217 37.8775 96.7961 36.9359 105.827 36.6796C107.192 36.5933 107.447 36.1643 108.043 35.0501C109.15 33.078 115.285 21.7661 116.99 19.8829C117.672 19.1113 118.525 18.5098 119.461 18.5098C120.142 18.5098 120.823 18.7687 121.505 19.3676C121.676 19.5403 121.762 19.7103 121.762 19.9666C121.762 20.6518 121.164 21.596 120.569 22.4539C118.694 25.7102 114.094 32.4791 112.305 35.3064C112.047 35.7354 111.878 35.9943 111.878 36.2506C111.878 36.5069 112.133 36.5932 112.728 36.5932C114.434 36.5069 117.074 36.5069 120.314 36.5069C135.565 36.5069 164.021 37.1059 172.201 37.3648C174.331 37.4511 177.059 37.5348 179.189 37.7074C180.125 37.8774 180.465 38.2201 180.465 38.5627C180.465 39.1643 179.698 39.7632 179.613 39.7632H179.529C178.931 39.7632 177.059 38.9916 176.632 38.9079C173.65 38.649 163.852 38.5627 152.605 38.5627C135.648 38.5627 115.456 38.8216 111.111 38.9916C109.832 38.9916 108.896 40.2784 108.469 40.9637C99.0115 58.2756 79.0745 93.2394 73.7932 111.407C73.6215 112.008 73.5357 112.78 73.4499 113.379C73.9622 113.808 75.0699 113.808 75.0699 114.579C75.0699 114.666 75.0699 114.749 74.9841 114.922C74.6435 115.693 73.7073 116.465 72.8544 116.465C72.0015 116.465 71.237 115.78 71.237 113.978C71.237 113.292 71.3202 112.521 71.5777 111.579C74.8151 97.2673 97.4773 53.4762 104.977 40.7911C105.317 40.2784 105.403 39.9358 105.403 39.6769C105.403 39.2506 104.977 39.1642 104.124 39.1642C91.0882 39.8495 73.7074 39.6769 59.8188 42.1642C58.711 42.3342 57.8581 42.4205 57.2627 42.4205L57.2627 42.4206Z" fill="#FFC255"/>
<path d="M102.507 100.009C102.507 92.7247 110.347 83.0422 111.283 79.5269C111.283 79.3569 111.369 79.1843 111.369 79.0143C111.369 76.6996 106.511 76.8722 104.381 75.4154C103.955 74.9864 103.7 74.3012 103.7 73.4433C103.7 71.9002 104.467 69.9307 105.916 68.2149C106.425 67.7023 107.107 67.4434 107.79 67.4434C109.239 67.4434 110.687 68.4739 110.687 70.1007C110.687 70.8723 110.43 71.7302 109.579 72.6717C112.56 73.6996 115.456 74.7301 115.456 77.9864C115.456 78.4991 115.456 79.0143 115.287 79.6132C114.775 82.3569 104.381 93.5826 104.381 100.953V101.466C104.55 103.354 105.489 104.811 107.533 105.323C107.874 105.41 108.3 105.496 108.727 105.496C118.696 105.496 142.979 79.4432 149.623 75.6717C150.221 75.3291 150.816 75.0728 151.414 74.7301C151.583 74.9001 151.669 75.0728 151.755 75.1565C151.414 75.4991 151.071 75.928 150.647 76.1007C140.251 82.6132 119.12 106.61 108.386 106.61C107.959 106.61 107.619 106.61 107.278 106.524C104.467 106.009 103.443 104.466 102.847 102.58C102.592 101.811 102.506 100.953 102.506 100.009L102.507 100.009Z" fill="#FFC255"/>
<path d="M152.865 91.6968C148.434 91.6968 146.645 88.3542 146.645 84.9279C146.645 83.5548 146.9 82.1843 147.412 80.9837C149.882 74.9001 154.228 70.5296 160.362 67.9586C161.215 67.5297 161.982 67.4434 162.663 67.4434C164.452 67.4434 165.388 68.7302 165.388 70.187C165.388 71.0449 165.134 71.9001 164.621 72.5854C163.771 73.7859 162.918 75.0727 161.725 75.8443C159.34 77.4711 156.698 78.928 154.142 80.3848C153.375 80.8137 152.524 81.07 151.672 81.07C151.159 81.07 150.65 80.9837 150.052 80.8137C149.03 82.3569 148.603 83.8974 148.603 85.2705C148.603 88.0116 150.564 89.8973 154.056 89.8973C154.995 89.8973 155.931 89.811 156.953 89.5547C165.303 87.4989 178.936 80.0422 185.497 74.9864C185.666 74.8138 185.838 74.7301 186.007 74.7301C186.093 74.7301 186.178 74.8138 186.178 74.9864C186.178 75.0728 186.093 75.2427 185.838 75.4991C179.703 80.9001 162.151 91.2679 153.375 91.6968H152.865L152.865 91.6968ZM151.5 78.4127C155.164 77.3011 160.617 72.928 161.043 70.7859C156.953 72.0728 154.228 74.9864 151.5 78.4127Z" fill="#FFC255"/>
<path d="M178.767 89.1255C178.767 88.0976 179.194 86.8971 179.62 85.8692C182.005 80.0419 185.159 74.6435 188.992 69.5878C190.186 67.9583 191.208 67.3594 191.975 67.3594C192.911 67.3594 193.423 68.3009 193.423 69.1588C193.423 69.4152 193.423 69.6715 193.337 69.8441C192.061 73.3567 188.992 78.4124 187.117 82.014C186.691 82.6129 186.436 83.2982 186.436 84.3261C190.1 81.1561 199.557 72.5014 202.454 70.702C203.135 70.2731 203.734 70.1004 204.243 70.1004C205.437 70.1004 206.118 71.0446 206.204 72.7578V73.1004C206.204 74.7299 205.949 77.5572 205.949 80.2982C205.949 83.6408 206.373 86.8971 208.079 87.8413C209.101 88.354 210.208 88.6129 211.316 88.6129C220.007 88.6129 230.741 74.8136 231.849 74.8136H231.935V74.9862C231.935 75.1562 231.849 75.4988 231.68 75.6715C227.335 80.5572 218.132 90.0697 210.549 90.0697C209.27 90.0697 208.079 89.8108 206.971 89.2119C204.074 87.755 203.648 84.1561 203.648 80.8135C203.648 79.2704 203.734 77.7273 203.734 76.5294C203.734 75.3289 203.817 74.1284 203.903 72.5015C202.966 73.2731 202.368 73.6157 201.773 74.1283C196.575 79.0141 191.293 83.8972 186.095 88.6966C184.647 90.0697 183.029 92.0392 181.324 92.0392C180.897 92.0392 180.473 91.8692 180.047 91.6102C179.108 91.0113 178.767 90.1534 178.767 89.1255L178.767 89.1255Z" fill="#FFC255"/>
<path d="M254.09 76.2689C254.09 75.9262 254.004 75.7562 253.835 75.7562C252.301 76.0989 239.606 82.0962 237.135 83.2104C235.601 83.8956 233.981 84.4972 232.278 84.9261C231.768 85.0961 231.256 85.1824 230.744 85.1824C228.871 85.1824 227.592 83.9819 227.592 82.0125C227.592 81.3272 227.764 80.6393 228.018 79.8704C230.234 73.7841 240.032 66.5 246.762 66.5C248.977 66.5 250.766 67.2716 251.96 69.1573C252.641 70.2716 252.813 71.642 253.239 73.0126C253.323 73.0126 253.58 73.0126 253.835 73.0989C254.345 72.9263 254.771 72.7563 255.197 72.7563C256.477 72.7563 257.244 73.7841 257.244 75.071C257.244 75.3273 257.158 75.4973 257.158 75.7562C256.901 76.9541 254.771 82.0962 253.749 84.4109C262.439 80.2967 270.534 76.1852 281.1 74.7284H281.354C281.695 74.7284 281.953 74.8121 281.953 74.9847C281.953 75.071 281.781 75.241 281.269 75.3273C273.603 76.8704 260.141 82.2688 253.921 85.8677C252.982 86.2967 252.386 86.9819 251.705 88.5251C243.439 104.121 226.484 145.085 207.059 147.829C206.461 147.915 205.866 147.999 205.354 147.999C201.18 147.999 199.732 145.258 199.732 141.745C199.732 137.029 202.288 130.859 204.163 127.603C212.681 113.207 230.744 97.7813 249.149 86.2967C250.343 85.7815 254.09 78.241 254.09 76.2689V76.2689ZM249.063 88.2687C237.817 94.9513 215.75 111.063 205.525 128.461C204.077 130.859 201.263 137.116 201.263 141.486C201.263 144.057 202.288 146.029 205.268 146.029C205.611 146.029 206.035 146.029 206.461 145.943C225.889 143.029 238.838 108.408 249.063 88.2687H249.063ZM248.808 74.642C248.041 73.3552 247.019 72.7563 245.74 72.7563C245.313 72.7563 244.887 72.8426 244.463 72.9263C240.628 73.9568 237.135 75.7563 234.238 78.5836C233.64 79.2688 233.045 79.9541 232.278 80.812C234.748 80.812 246.338 76.4415 248.808 74.642H248.808Z" fill="#FFC255"/>
<path d="M304.789 70.9578C303.512 73.2725 299.167 80.8993 298.486 82.6988C299.167 82.6988 299.422 82.1835 299.677 81.8409C301.723 79.6988 308.198 73.1862 312.715 73.1862C314.247 73.1862 315.526 73.9578 316.376 75.8436C318.082 79.8714 316.888 84.2419 318.508 88.2698C319.699 91.1834 320.893 92.125 323.194 92.3813H323.621C329.755 92.3813 340.575 80.813 346.795 75.7573C347.222 75.4146 347.646 74.8994 348.33 74.8131C348.413 74.9857 348.499 75.072 348.499 75.242C348.499 75.5847 347.989 75.8436 347.731 76.0136C341.171 81.6709 330.096 94.0108 323.28 94.0108H323.109C320.724 93.9245 318.763 92.8103 317.656 91.0108C314.845 86.554 315.952 83.2978 315.099 78.7572C314.673 76.4425 313.906 75.3284 312.629 75.3284C311.862 75.3284 310.926 75.671 309.818 76.2699C304.62 79.1836 298.741 86.2114 295.417 91.0108C294.564 92.2113 293.714 93.7545 292.52 93.7545C292.351 93.7545 292.094 93.7545 291.925 93.6681C291.327 93.4092 291.072 92.8966 291.072 92.2113C291.072 91.3534 291.499 90.3255 291.753 89.554C292.521 87.0693 293.628 84.5845 294.908 82.2698C301.211 70.5289 311.095 51.9328 318.678 40.9634C318.932 40.6208 319.359 40.3645 319.359 39.6766H316.634C312.97 39.6766 306.836 39.6766 306.495 39.7629C305.215 39.7629 304.789 40.1055 304.279 40.8771C294.564 56.3896 286.131 70.7015 277.441 86.8129C274.204 92.8966 269.856 103.094 269.005 106.094C268.579 107.551 268.238 109.008 268.238 110.551C268.238 111.323 268.324 112.094 268.579 112.866C268.665 113.036 268.665 113.208 268.665 113.292C268.665 113.807 268.324 114.15 267.983 114.15C267.302 114.15 266.449 113.292 266.363 110.637V110.551C266.363 105.665 271.304 94.0971 277.441 81.5846C285.45 65.4732 295.417 47.9049 298.912 41.9913C299.167 41.6487 299.677 40.7071 299.677 40.1919C299.677 40.0192 299.594 39.8492 299.336 39.8492H299.167C290.817 40.3645 283.318 40.9634 275.993 42.4203C274.968 42.6766 273.01 42.9355 271.562 42.9355C271.049 42.9355 270.54 42.9355 270.199 42.8492C268.665 42.4202 268.152 41.5624 268.152 40.7071C268.152 38.8213 270.794 36.5066 272.243 36.5066C272.412 36.5066 272.584 36.5066 272.753 36.593C273.179 36.8493 273.777 37.1919 273.777 38.2198C273.777 38.6487 273.691 39.2503 273.436 39.9355H273.777C276.588 39.9355 298.059 38.3061 300.189 38.0498C301.125 37.9634 301.723 37.6208 302.15 36.8493C303.767 34.2782 314.163 18.5094 316.293 16.54C317.06 15.8547 318.337 15.5121 319.359 15.4258C320.04 15.4258 320.298 16.1974 320.298 16.9689C320.298 17.3115 320.212 17.7379 320.126 18.0805C318.423 21.852 309.306 32.3088 307.262 35.8213C307.09 36.2503 306.578 36.8492 306.578 37.2782C306.578 37.5345 306.75 37.7934 307.345 37.7934H314.332C316.974 37.7934 319.359 37.7934 319.957 37.8771C320.893 37.8771 322.256 36.4203 322.768 35.7351C328.307 29.2225 329.074 28.3646 335.975 23.3952C336.997 22.7099 338.019 22.0247 339.296 21.7657C339.553 21.682 339.808 21.682 340.063 21.682C341.428 21.682 342.279 22.5373 342.279 23.9941C342.279 24.1667 342.193 24.4231 342.193 24.6794C341.511 28.1083 338.36 33.8493 335.975 37.5345C335.804 37.8771 335.635 38.1361 335.635 38.2198C335.635 38.3924 335.804 38.4787 336.23 38.4787C344.068 38.5624 351.395 39.0776 359.15 39.4203C359.405 39.4203 360 40.0192 360 40.4481C360 40.7908 359.745 40.9634 359.236 40.9634H359.064C357.956 40.8771 357.275 40.3644 356.253 40.3644C349.094 39.9355 342.96 39.8492 335.037 39.8492C334.186 39.8492 333.843 39.8492 333.333 40.4481C328.39 46.5344 312.289 65.3005 305.728 69.7573C305.301 70.0136 305.047 70.4426 304.789 70.9578L304.789 70.9578ZM307.431 66.1584C307.431 66.2447 307.431 66.331 307.517 66.4147C309.818 64.8742 328.307 44.306 331.204 40.1055C331.373 39.9355 331.458 39.8492 331.458 39.7629C331.458 39.6766 331.373 39.5929 331.118 39.5929C330.265 39.5066 329.329 39.5066 328.562 39.5066H324.729C323.704 39.5066 323.194 40.1055 322.513 41.0497C318.082 47.8186 311.607 58.7016 307.603 65.8158C307.517 65.9021 307.431 66.0721 307.431 66.1584L307.431 66.1584ZM325.069 37.7071C325.069 37.9634 325.324 38.0498 325.834 38.1361C326.518 38.2198 330.01 38.2198 331.799 38.3924C332.48 38.3924 332.821 38.0498 332.907 37.9634C334.696 35.565 339.894 26.8241 339.894 24.1667C336.399 25.0246 327.625 34.0219 325.238 37.2782C325.152 37.4508 325.069 37.6208 325.069 37.7071H325.069Z" fill="#FFC255"/>
</g>
</svg>
