<svg width="360" height="154" viewBox="0 0 360 154" fill="none" xmlns="http://www.w3.org/2000/svg">
<g opacity="0.2">
<path d="M107.796 110.003C102.432 110.003 100.266 105.993 100.266 101.88C100.266 100.235 100.575 98.5914 101.195 97.1512C104.186 89.8533 109.446 84.6105 116.872 81.5263C117.904 81.0117 118.833 80.9082 119.658 80.9082C121.824 80.9082 122.957 82.4487 122.957 84.1964C122.957 85.2255 122.649 86.2546 122.028 87.0766C120.999 88.5167 119.966 90.0573 118.522 90.9828C115.635 92.9375 112.436 94.6851 109.342 96.4328C108.413 96.9442 107.384 97.2548 106.351 97.2548C105.731 97.2548 105.114 97.1512 104.39 96.9442C103.153 98.7953 102.637 100.646 102.637 102.291C102.637 105.582 105.01 107.844 109.238 107.844C110.375 107.844 111.508 107.74 112.745 107.433C122.853 104.964 139.358 96.0217 147.3 89.9537C147.505 89.7498 147.713 89.6463 147.917 89.6463C148.021 89.6463 148.125 89.7498 148.125 89.9537C148.125 90.0573 148.021 90.2644 147.713 90.5718C140.287 97.0477 119.038 109.488 108.413 110.003H107.796H107.796ZM106.144 94.067C110.579 92.7304 117.18 87.4876 117.697 84.918C112.745 86.4585 109.446 89.9537 106.144 94.067Z" fill="#FFC255"/>
<path d="M142.764 119.974C142.764 111.236 152.255 99.6174 153.389 95.4037C153.389 95.1966 153.493 94.9926 153.493 94.7856C153.493 92.012 147.612 92.2159 145.034 90.4683C144.518 89.9537 144.209 89.1317 144.209 88.1057C144.209 86.2546 145.138 83.8889 146.891 81.8338C147.508 81.2157 148.333 80.9082 149.161 80.9082C150.914 80.9082 152.668 82.1413 152.668 84.096C152.668 85.0215 152.356 86.0475 151.327 87.1802C154.934 88.4132 158.441 89.6463 158.441 93.5525C158.441 94.1706 158.441 94.7856 158.237 95.5072C157.616 98.7954 145.034 112.262 145.034 121.103V121.721C145.239 123.984 146.375 125.731 148.849 126.346C149.262 126.45 149.778 126.553 150.294 126.553C162.364 126.553 191.759 95.3001 199.802 90.7758C200.526 90.3648 201.247 90.0573 201.971 89.6463C202.176 89.8533 202.28 90.0573 202.384 90.1608C201.971 90.5719 201.556 91.0864 201.043 91.2903C188.457 99.1028 162.877 127.89 149.882 127.89C149.365 127.89 148.953 127.89 148.541 127.786C145.138 127.168 143.901 125.317 143.177 123.058C142.868 122.132 142.764 121.103 142.764 119.974H142.764Z" fill="#FFC255"/>
<path d="M199.085 115.346C195.578 115.346 194.649 112.776 194.649 110.206C194.649 109.488 194.753 108.766 194.857 108.048C196.198 102.394 200.013 89.7496 203.933 85.8434C204.241 85.4323 204.757 85.3288 205.17 85.3288C206.202 85.3288 207.235 86.2544 207.235 87.3839C207.235 87.591 207.235 87.7949 207.131 88.002C204.965 94.6849 200.53 104.349 199.705 110.721V110.824C199.705 111.235 199.909 111.339 200.221 111.339C200.322 111.339 200.426 111.339 200.53 111.235C210.842 102.394 221.778 92.6267 234.052 84.1961C234.465 83.9922 234.773 83.8887 235.082 83.8887C235.702 83.8887 236.114 84.2997 236.114 84.8143C236.114 85.0213 236.01 85.3288 235.806 85.5328C223.119 94.0669 213.836 103.627 203.212 113.291C201.663 114.423 201.147 115.245 199.189 115.346H199.085H199.085Z" fill="#FFC255"/>
<path d="M239.728 110.618C236.426 110.618 234.468 108.459 234.468 104.86V104.656C234.569 97.9735 239.624 89.9539 244.06 85.4327C245.505 83.9926 246.534 83.478 247.359 83.478C248.391 83.478 248.908 84.3001 248.908 85.2257C248.908 85.5331 248.908 85.8438 248.804 86.0477C248.596 86.7693 247.875 87.3843 247.359 88.1059C244.781 92.0122 241.995 95.9184 239.52 99.9282C238.696 101.365 237.871 103.524 237.871 105.375C237.871 107.226 238.592 108.563 240.553 108.563H241.17C247.771 107.844 264.893 98.7955 270.569 95.1968C273.248 93.4491 275.93 91.4976 278.612 89.6464C278.716 89.5429 278.924 89.5429 279.024 89.5429C279.128 89.5429 279.336 89.5429 279.336 89.75C279.336 89.8535 279.128 90.161 278.511 90.572C268.4 97.8699 254.064 107.741 241.482 110.414C240.862 110.514 240.241 110.618 239.728 110.618L239.728 110.618ZM252.002 78.9537C250.661 78.9537 249.937 77.9277 249.937 76.7951C249.937 75.4585 250.97 74.0215 253.239 74.0215C253.96 74.0215 254.684 74.1219 255.509 74.4325C256.438 74.74 256.951 75.2545 256.951 75.7691C256.951 76.7951 255.714 77.9278 253.032 78.7498C252.619 78.8533 252.311 78.9537 252.002 78.9537V78.9537Z" fill="#FFC255"/>
<path d="M281.398 113.395C276.859 113.395 273.764 110.721 273.456 105.89V104.76C273.456 96.5334 279.437 87.7954 284.596 82.038C287.379 78.8534 289.857 77.7207 291.815 77.7207C294.805 77.7207 296.559 80.2903 296.559 82.9635C296.559 84.4037 296.046 85.9442 294.909 86.9733C294.497 87.3844 294.084 87.4879 293.672 87.4879C293.052 87.4879 292.539 87.0769 292.331 86.2548C292.022 85.2257 291.919 84.3002 291.61 82.9636C290.886 83.3746 290.165 83.5817 289.753 83.9927C284.492 88.4135 277.17 98.8992 276.859 105.993V106.508C276.859 110.003 279.336 111.34 282.223 111.34C283.564 111.34 284.801 111.132 286.142 110.721C296.25 107.433 309.557 96.4331 317.603 89.8537C317.704 89.7501 317.911 89.6466 318.015 89.6466C318.116 89.6466 318.22 89.7501 318.22 89.9541C318.22 90.0576 318.22 90.1611 318.015 90.3651C310.898 97.7697 296.046 109.385 286.142 112.573C284.389 113.087 282.843 113.395 281.398 113.395L281.398 113.395Z" fill="#FFC255"/>
<path d="M319.671 110.003C314.307 110.003 312.141 105.993 312.141 101.88C312.141 100.235 312.45 98.5914 313.07 97.1512C316.06 89.8533 321.321 84.6105 328.747 81.5263C329.779 81.0117 330.708 80.9082 331.533 80.9082C333.699 80.9082 334.832 82.4487 334.832 84.1964C334.832 85.2255 334.523 86.2546 333.903 87.0766C332.874 88.5167 331.841 90.0573 330.396 90.9828C327.51 92.9375 324.311 94.6851 321.217 96.4328C320.288 96.9442 319.259 97.2548 318.226 97.2548C317.606 97.2548 316.989 97.1512 316.265 96.9442C315.028 98.7953 314.512 100.646 314.512 102.291C314.512 105.582 316.885 107.844 321.113 107.844C322.249 107.844 323.383 107.74 324.62 107.433C334.728 104.964 351.233 96.0217 359.175 89.9537C359.38 89.7498 359.588 89.6463 359.792 89.6463C359.896 89.6463 360 89.7498 360 89.9537C360 90.0573 359.896 90.2644 359.588 90.5718C352.162 97.0477 330.913 109.488 320.288 110.003H319.671H319.671ZM318.019 94.067C322.454 92.7304 329.055 87.4876 329.572 84.918C324.62 86.4585 321.321 89.9537 318.019 94.067Z" fill="#FFC255"/>
<path d="M67.8705 81.3188C67.8705 81.1149 67.562 81.0114 67.2503 80.7007C54.8756 72.1698 33.1105 70.9367 19.4955 60.8621C14.1313 56.9558 11.5531 52.739 11.5531 48.2178C11.5531 44.4119 13.4104 40.5057 17.0212 36.3924C20.2164 32.6932 23.8271 29.402 27.7463 26.4213C41.5691 16.0391 56.4213 7.71208 73.2346 2.9838C77.9786 1.64719 84.58 0 90.3565 0C92.3145 0 94.1718 0.207068 95.8214 0.618087C101.186 1.95469 103.147 5.34636 103.147 9.1522C103.147 12.2364 101.91 15.5246 100.257 18.5052C96.3377 25.4956 90.9766 31.4601 85.2001 37.0104C84.1676 38.14 83.0343 38.9651 82.518 40.5057C82.1056 41.6383 80.3522 42.8714 78.8034 42.8714C77.9786 42.8714 77.2578 42.5608 76.7415 41.9458C76.2252 41.4312 76.1213 40.8131 76.1213 40.3017C76.1213 38.8616 77.2578 37.6285 78.391 36.7029C84.3722 31.5605 96.9578 18.5052 97.8865 9.76714V9.25257C97.8865 5.65695 94.3796 4.62784 90.048 4.62784C85.0962 4.62784 79.1119 6.06797 76.9461 6.68294C56.6291 12.1329 38.6793 21.7965 23.1062 35.8809C20.8365 37.8325 18.8753 39.9911 17.2258 42.5607C15.9886 44.6189 15.4723 46.467 15.4723 48.2177C15.4723 53.4606 20.3202 57.4672 25.4766 60.3474C38.1661 67.6454 57.1421 70.215 71.0688 78.9531C71.4812 79.2637 71.8936 79.3641 72.306 79.3641C72.7184 79.3641 73.0269 79.2637 73.4392 79.1602C79.2158 77.1051 84.1675 75.4579 89.8402 75.4579C91.4898 75.4579 93.2432 75.5614 95.1005 75.8689C97.8865 76.3835 100.156 77.1051 101.085 80.7007H100.981C99.7438 80.7007 100.361 78.4417 96.8539 77.4126C94.9966 76.898 93.0386 76.6941 91.0774 76.6941C85.4047 76.6941 79.4236 78.4417 74.5757 80.3932C74.264 80.4968 74.1633 80.7007 74.1633 80.8043C74.1633 80.9078 74.1633 80.9078 74.264 81.0113C77.8748 84.0955 84.0637 88.9274 84.0637 97.7689C84.0637 103.012 81.8979 109.591 75.6051 118.122C66.0132 130.974 46.6216 147.217 27.6424 152.356C23.7232 153.385 19.9079 154 16.0925 154C13.3065 154 10.6244 153.693 7.94237 152.971C2.37358 151.43 0 146.599 0 141.767C0 139.608 0.516281 137.346 1.34105 135.495C9.79967 115.964 48.1704 91.3935 67.4581 81.6263C67.7666 81.5259 67.8705 81.4224 67.8705 81.3188V81.3188ZM4.02313 134.158C2.68208 136.627 1.9612 139.401 1.9612 142.074C1.9612 146.495 4.02313 150.505 9.17953 151.738C11.3454 152.356 13.9267 152.56 16.5049 152.56C20.4241 152.56 24.4472 151.945 27.4378 151.123C45.3844 145.673 62.8148 132.103 74.0594 117.197C79.0112 110.514 82.3103 104.245 82.3103 98.2804C82.3103 92.8336 79.5275 87.5908 72.5106 82.6554C71.9975 82.3479 71.3773 82.0373 70.7572 82.0373C70.4487 82.0373 70.0363 82.1409 69.7278 82.3479C51.7811 92.0116 13.0987 117.608 4.0231 134.158H4.02313Z" fill="#FFC255"/>
</g>
</svg>
