<svg width="263" height="148" viewBox="0 0 263 148" fill="none" xmlns="http://www.w3.org/2000/svg">
<g clip-path="url(#clip0_505_1740)">
<path d="M7.91807e-05 84.088C7.91807e-05 83.0687 0.675385 81.9667 1.68834 81.9667C1.94352 81.9667 2.11106 82.0521 2.36365 82.1374C2.61882 82.2228 2.87141 82.3056 3.12402 82.3056C3.46167 82.3056 3.79933 82.2228 4.22205 82.0521C14.6944 78.3242 25.4194 75.3569 36.3995 73.4917C37.5826 73.2381 38.2579 72.7285 38.8481 71.7118C48.9828 54.503 60.9759 38.5671 73.8119 23.3115C78.3714 17.8865 93.3209 1.52633 101.345 0.170734C101.767 0.0853538 102.188 0 102.61 0C106.494 0 108.27 3.89862 108.438 7.62907V8.73115C108.438 24.0747 93.406 52.8085 87.2406 66.7939C87.5783 66.8793 87.9159 66.9646 88.1685 66.9646C88.6763 66.9646 89.1815 66.8793 89.6042 66.7939C95.2644 66.3722 100.922 65.9479 106.665 65.9479H109.028C109.536 65.9479 109.959 66.0307 110.044 66.6257C110.044 67.2182 109.706 67.3889 109.198 67.3889C108.861 67.3889 108.523 67.3035 108.27 67.3035C101.345 67.3889 94.504 68.1521 87.6634 68.8299C86.4803 68.9153 85.0446 69.6758 84.5368 70.7779C71.7009 97.8199 64.4375 111.72 51.9392 138.93C50.6711 141.473 49.3205 143.677 48.1374 146.306C47.7173 147.151 47.4621 148 46.7018 148C46.4492 148 46.2816 147.915 46.0264 147.832C45.6888 147.661 45.5212 147.322 45.5212 146.898C45.5212 146.135 46.0264 145.118 46.2816 144.694L51.6866 135.541C63.5947 109.686 70.1802 96.6324 82.2583 70.8632C82.4259 70.5243 82.596 70.1854 82.596 69.7612V69.593H82.2583C77.6137 69.593 47.7173 74.8472 43.07 75.7811C41.8895 76.0346 41.0441 76.4589 40.3688 77.561C36.6521 83.4076 28.8835 96.8859 25.9271 103.498C25.6745 104.091 25.5895 104.43 25.5895 104.686C25.5895 105.617 26.5174 105.449 26.5174 106.719C26.5174 106.975 26.5174 107.397 26.3498 107.907C25.6745 110.45 24.1538 112.483 22.2954 114.263C21.6201 114.858 20.8597 115.111 20.0143 115.111C18.3261 115.111 16.6378 113.841 16.6378 111.805C16.6378 111.381 16.7229 110.959 16.8904 110.45C18.7487 105.193 30.6568 85.1047 34.0359 79.509C34.3735 79.0019 34.7937 78.4923 34.9638 77.7291C34.7112 77.6437 34.541 77.5609 34.3735 77.5609C34.0359 77.5609 33.6132 77.7291 33.2755 77.8145C24.5764 79.7651 15.9625 82.2227 7.51599 85.19C6.08031 85.6971 4.05442 86.4602 2.53368 86.4602C2.19602 86.4602 1.94344 86.4602 1.68826 86.3748C0.507759 85.9506 0 85.0192 0 84.0879L7.91807e-05 84.088ZM43.6629 72.1361C56.8365 70.3562 69.4198 68.7445 82.681 67.3889C83.6089 67.3035 84.1167 66.9646 84.4543 66.0307C90.1119 53.9106 100.669 32.5497 103.961 20.0053C104.554 17.8866 105.819 12.7151 105.819 8.64577C105.819 5.42495 104.976 2.79654 102.443 2.79654C101.427 2.79654 100.247 3.22082 98.6409 4.06935C92.1378 7.79981 82.7635 17.5477 77.8662 23.0554C66.3809 35.9413 56.3313 49.9266 47.5472 64.8459C46.1966 67.1328 44.8459 69.3369 43.6629 72.136V72.1361Z" fill="#FFF3DD"/>
<path d="M102.87 98.2417C99.1537 98.2417 96.62 96.0402 96.3674 92.0562V91.1223C96.3674 84.3418 101.265 77.1369 105.489 72.3898C107.768 69.7614 109.796 68.8301 111.399 68.8301C113.848 68.8301 115.284 70.9488 115.284 73.153C115.284 74.3404 114.864 75.6106 113.933 76.4592C113.595 76.7981 113.258 76.8809 112.92 76.8809C112.412 76.8809 111.992 76.542 111.822 75.8642C111.569 75.0182 111.484 74.255 111.232 73.153C110.639 73.4919 110.049 73.66 109.711 73.9989C105.404 77.644 99.4089 86.2898 99.1537 92.139V92.5633C99.1537 95.4452 101.182 96.5473 103.546 96.5473C104.644 96.5473 105.657 96.3791 106.755 96.0402C115.031 93.3265 125.926 84.2564 132.514 78.8315C132.597 78.7461 132.767 78.6633 132.852 78.6633C132.934 78.6633 133.019 78.7461 133.019 78.9168C133.019 79.0022 133.019 79.085 132.852 79.2557C127.024 85.3585 114.864 94.9382 106.755 97.564C105.319 97.9882 104.054 98.2418 102.87 98.2418L102.87 98.2417Z" fill="#FFF3DD"/>
<path d="M134.458 98.2417C130.741 98.2417 128.207 96.0402 127.955 92.0562V91.1223C127.955 84.3418 132.852 77.1369 137.076 72.3898C139.355 69.7614 141.383 68.8301 142.987 68.8301C145.435 68.8301 146.871 70.9488 146.871 73.153C146.871 74.3404 146.451 75.6106 145.52 76.4592C145.183 76.7981 144.845 76.8809 144.507 76.8809C144 76.8809 143.579 76.542 143.409 75.8642C143.157 75.0182 143.072 74.255 142.819 73.153C142.226 73.4919 141.636 73.66 141.298 73.9989C136.991 77.644 130.996 86.2898 130.741 92.139V92.5633C130.741 95.4452 132.769 96.5473 135.133 96.5473C136.231 96.5473 137.244 96.3791 138.342 96.0402C146.618 93.3265 157.513 84.2564 164.102 78.8315C164.184 78.7461 164.354 78.6633 164.439 78.6633C164.522 78.6633 164.607 78.7461 164.607 78.9168C164.607 79.0022 164.607 79.085 164.439 79.2557C158.611 85.3585 146.451 94.9382 138.342 97.564C136.906 97.9882 135.641 98.2418 134.458 98.2418L134.458 98.2417Z" fill="#FFF3DD"/>
<path d="M165.792 95.4444C161.4 95.4444 159.627 92.1382 159.627 88.7492C159.627 87.391 159.88 86.0355 160.387 84.848C162.836 78.8306 167.143 74.5077 173.223 71.9647C174.069 71.5404 174.829 71.4551 175.504 71.4551C177.278 71.4551 178.206 72.7279 178.206 74.1688C178.206 75.0174 177.953 75.8633 177.445 76.5411C176.602 77.7286 175.757 79.0014 174.574 79.7645C172.21 81.3737 169.592 82.8146 167.058 84.2556C166.298 84.6799 165.455 84.9334 164.609 84.9334C164.102 84.9334 163.596 84.848 163.003 84.6799C161.991 86.2062 161.568 87.7299 161.568 89.0881C161.568 91.7993 163.511 93.6645 166.973 93.6645C167.903 93.6645 168.831 93.5791 169.844 93.3256C178.12 91.2922 191.634 83.9167 198.137 78.916C198.305 78.7453 198.475 78.6625 198.643 78.6625C198.728 78.6625 198.813 78.7453 198.813 78.916C198.813 79.0014 198.728 79.1695 198.475 79.4231C192.395 84.7652 174.997 95.0201 166.298 95.4444H165.792L165.792 95.4444ZM164.439 82.305C168.071 81.2055 173.476 76.88 173.899 74.7613C169.844 76.0341 167.143 78.916 164.439 82.305Z" fill="#FFF3DD"/>
<path d="M185.134 109.772C185.894 99.0051 202.614 88.0723 210.471 83.408C210.471 83.408 210.553 83.3252 210.553 83.2398C210.553 83.0691 210.471 82.9863 210.048 82.9863H209.71C208.865 83.0691 207.599 83.2398 206.161 83.2398C203.375 83.2398 199.998 82.7302 198.563 80.865C198.14 80.3579 197.97 79.7655 197.97 79.0851C197.97 72.7288 214.017 60.5233 219.167 60.0137H219.675C221.786 60.0137 222.631 61.54 222.631 63.0663C222.631 64.2512 222.038 65.3532 221.025 65.4386H220.94C219.505 65.4386 220.183 63.9976 219.167 63.9976C219.085 63.9976 218.914 63.9976 218.662 64.083C215.876 64.5073 204.643 73.2384 202.532 76.6274C202.024 77.3052 201.686 77.983 201.686 78.578C201.686 79.0851 201.939 79.5093 202.447 79.8482C204.05 81.0357 211.313 79.6801 214.1 81.4599C219.505 77.983 225.332 75.1011 232.934 72.5581C235.215 71.7975 236.735 71.2025 238.253 70.949C238.591 70.8636 238.931 70.8636 239.269 70.8636C240.872 70.8636 241.885 71.7121 241.885 72.9823C241.885 73.3212 241.803 73.7455 241.633 74.1697C241.295 74.9329 241.21 76.035 241.21 77.2224C241.21 80.6967 242.308 85.105 242.646 85.7828C247.29 82.7302 257.425 79.1704 261.732 78.7462H261.987C262.492 78.7462 263 78.9169 263 79.0851C263 79.2558 262.745 79.424 261.902 79.5947C255.314 81.0357 248.811 82.7301 242.983 86.9702C243.491 88.494 243.658 90.0203 243.658 91.632C243.658 101.124 235.637 110.618 229.472 113.5C228.121 114.18 226.768 114.519 225.588 114.519C222.969 114.519 221.025 112.908 221.025 109.94C221.025 109.601 221.111 109.348 221.111 109.009C222.294 99.4293 233.271 91.3759 240.872 86.546C239.436 82.7302 238.338 77.4759 238.338 74.3405V73.5773C238.338 72.8142 237.916 72.6434 237.411 72.6434C237.155 72.6434 236.988 72.6434 236.735 72.7288C232.681 73.5773 218.662 79.7654 215.791 81.967C215.535 82.1377 215.453 82.3059 215.453 82.4766C215.453 82.6473 215.535 82.7301 215.705 82.8155C216.718 84.0883 217.226 85.8682 217.226 87.9016C217.226 98.3272 204.81 116.214 193.915 117.145C193.578 117.145 193.24 117.23 192.902 117.23C188.51 117.23 185.134 114.858 185.134 110.45V109.772L185.134 109.772ZM186.317 109.348C186.317 109.687 186.232 110.026 186.232 110.365C186.232 114.687 189.441 116.299 192.65 116.299C193.073 116.299 193.495 116.214 193.833 116.214C204.305 115.197 214.86 97.1398 214.86 88.0723C214.86 86.2899 214.44 84.8489 213.51 84.003C213.257 83.7495 213.087 83.6641 212.919 83.6641C212.749 83.6641 212.582 83.6641 212.326 83.8322C204.643 88.4112 187.16 100.107 186.317 109.348ZM222.209 109.009C222.124 109.348 222.124 109.687 222.124 110.026C222.124 112.315 223.474 113.417 225.503 113.417C226.601 113.417 227.866 113.078 229.134 112.483C235.552 109.348 242.223 99.8536 242.223 91.8002C242.223 90.4446 241.97 89.089 241.548 87.8162C233.864 92.478 223.559 100.107 222.209 109.009L222.209 109.009Z" fill="#FFF3DD"/>
</g>
<defs>
<clipPath id="clip0_505_1740">
<rect width="263" height="148" fill="white"/>
</clipPath>
</defs>
</svg>
