<svg width="623" height="282" viewBox="0 0 623 282" fill="none" xmlns="http://www.w3.org/2000/svg">
<g opacity="0.2">
<path d="M124.241 148.859C124.241 148.485 123.676 148.296 123.105 147.727C100.453 132.111 60.6106 129.854 35.6876 111.411C25.8682 104.261 21.1486 96.5416 21.1486 88.2653C21.1486 81.2985 24.5485 74.1479 31.1582 66.6183C37.0072 59.8468 43.6168 53.8219 50.7912 48.3656C76.0946 29.3605 103.282 14.1174 134.06 5.46201C142.744 3.01528 154.828 0 165.403 0C168.987 0 172.387 0.379049 175.406 1.13144C185.226 3.57818 188.816 9.78682 188.816 16.7536C188.816 22.3994 186.551 28.4186 183.526 33.8748C176.351 46.6712 166.538 57.5895 155.964 67.7497C154.073 69.8173 151.999 71.3279 151.054 74.1479C150.299 76.2213 147.089 78.4784 144.254 78.4784C142.744 78.4784 141.425 77.9098 140.48 76.7841C139.534 75.8421 139.344 74.7107 139.344 73.7745C139.344 71.1383 141.425 68.8811 143.499 67.1868C154.448 57.7732 177.487 33.8748 179.187 17.8793V16.9373C179.187 10.3554 172.767 8.47153 164.838 8.47153C155.773 8.47153 144.819 11.1078 140.854 12.2335C103.663 22.2099 70.8046 39.8997 42.2972 65.682C38.1424 69.2544 34.5523 73.2059 31.5327 77.9098C29.268 81.6774 28.3229 85.0604 28.3229 88.2652C28.3229 97.8625 37.1973 105.197 46.6364 110.469C69.8652 123.829 104.602 128.532 130.095 144.528C130.85 145.097 131.605 145.28 132.36 145.28C133.115 145.28 133.68 145.097 134.435 144.907C145.009 141.145 154.073 138.13 164.458 138.13C167.477 138.13 170.687 138.319 174.087 138.882C179.187 139.824 183.341 141.145 185.041 147.727H184.851C182.587 147.727 183.716 143.592 177.297 141.708C173.897 140.766 170.312 140.393 166.722 140.393C156.338 140.393 145.389 143.592 136.515 147.164C135.944 147.354 135.76 147.727 135.76 147.917C135.76 148.106 135.76 148.106 135.944 148.296C142.554 153.942 153.883 162.786 153.883 178.971C153.883 188.569 149.919 200.613 138.399 216.229C120.841 239.754 85.3435 269.488 50.601 278.896C43.4266 280.78 36.4424 281.905 29.4582 281.905C24.3583 281.905 19.4486 281.343 14.5389 280.022C4.34498 277.202 0 268.357 0 259.512C0 255.56 0.945081 251.419 2.45487 248.031C17.9388 212.278 88.1786 167.301 123.486 149.421C124.051 149.238 124.241 149.048 124.241 148.859ZM7.36456 245.584C4.90969 250.104 3.59008 255.181 3.59008 260.075C3.59008 268.167 7.36456 275.507 16.8036 277.765C20.7683 278.896 25.4936 279.269 30.2131 279.269C37.3875 279.269 44.752 278.144 50.2264 276.639C83.0787 266.662 114.986 241.822 135.57 214.535C144.634 202.301 150.674 190.826 150.674 179.908C150.674 169.937 145.579 160.34 132.735 151.305C131.795 150.742 130.66 150.174 129.525 150.174C128.96 150.174 128.205 150.363 127.641 150.742C94.7882 168.432 23.978 215.287 7.3645 245.584H7.36456Z" fill="url(#paint0_linear_505_1927)"/>
<path d="M197.327 201.364C187.508 201.364 183.543 194.024 183.543 186.495C183.543 183.485 184.108 180.475 185.243 177.839C190.718 164.48 200.347 154.883 213.941 149.237C215.831 148.295 217.531 148.105 219.041 148.105C223.005 148.105 225.08 150.925 225.08 154.125C225.08 156.008 224.515 157.892 223.38 159.397C221.495 162.033 219.605 164.853 216.96 166.548C211.676 170.126 205.821 173.325 200.157 176.524C198.457 177.46 196.572 178.029 194.682 178.029C193.547 178.029 192.418 177.839 191.092 177.46C188.827 180.849 187.882 184.237 187.882 187.247C187.882 193.272 192.227 197.413 199.966 197.413C202.047 197.413 204.121 197.223 206.386 196.661C224.889 192.141 255.103 175.772 269.642 164.664C270.016 164.29 270.396 164.101 270.771 164.101C270.961 164.101 271.151 164.291 271.151 164.664C271.151 164.853 270.961 165.232 270.396 165.795C256.803 177.65 217.905 200.423 198.457 201.364H197.327H197.327ZM194.302 172.193C202.421 169.747 214.505 160.149 215.45 155.446C206.386 158.266 200.347 164.664 194.302 172.193Z" fill="url(#paint1_linear_505_1927)"/>
<path d="M261.338 219.617C261.338 203.622 278.712 182.354 280.786 174.64C280.786 174.261 280.977 173.888 280.977 173.509C280.977 168.432 270.212 168.805 265.493 165.606C264.547 164.664 263.983 163.159 263.983 161.281C263.983 157.892 265.683 153.562 268.892 149.8C270.022 148.668 271.532 148.105 273.047 148.105C276.257 148.105 279.467 150.363 279.467 153.941C279.467 155.635 278.896 157.513 277.012 159.587C283.616 161.844 290.035 164.101 290.035 171.252C290.035 172.383 290.035 173.509 289.661 174.83C288.525 180.849 265.493 205.5 265.493 221.685V222.816C265.867 226.957 267.947 230.156 272.477 231.282C273.232 231.472 274.177 231.661 275.122 231.661C297.215 231.661 351.026 174.451 365.749 166.169C367.075 165.416 368.394 164.853 369.72 164.101C370.094 164.48 370.285 164.853 370.475 165.043C369.72 165.795 368.959 166.737 368.02 167.111C344.981 181.412 298.155 234.108 274.367 234.108C273.422 234.108 272.667 234.108 271.912 233.918C265.683 232.787 263.418 229.398 262.093 225.263C261.528 223.569 261.338 221.685 261.338 219.617H261.338Z" fill="url(#paint2_linear_505_1927)"/>
<path d="M364.435 211.146C358.016 211.146 356.316 206.442 356.316 201.739C356.316 200.423 356.506 199.102 356.696 197.787C359.151 187.437 366.135 164.291 373.31 157.141C373.874 156.388 374.819 156.199 375.574 156.199C377.464 156.199 379.355 157.893 379.355 159.961C379.355 160.34 379.355 160.713 379.164 161.092C375.2 173.326 367.08 191.015 365.571 202.68V202.87C365.571 203.622 365.945 203.812 366.516 203.812C366.7 203.812 366.89 203.812 367.08 203.622C385.958 187.437 405.978 169.558 428.446 154.125C429.201 153.752 429.765 153.562 430.33 153.562C431.465 153.562 432.22 154.315 432.22 155.257C432.22 155.636 432.03 156.199 431.656 156.572C408.432 172.194 391.439 189.695 371.99 207.384C369.155 209.458 368.21 210.963 364.625 211.146H364.435H364.435Z" fill="url(#paint3_linear_505_1927)"/>
<path d="M438.836 202.492C432.791 202.492 429.207 198.54 429.207 191.952V191.579C429.391 179.345 438.646 164.665 446.765 156.389C449.41 153.753 451.294 152.811 452.804 152.811C454.694 152.811 455.639 154.316 455.639 156.01C455.639 156.573 455.639 157.141 455.449 157.515C455.069 158.836 453.749 159.961 452.804 161.282C448.085 168.433 442.985 175.583 438.455 182.924C436.946 185.554 435.436 189.506 435.436 192.894C435.436 196.283 436.756 198.73 440.346 198.73H441.475C453.559 197.414 484.902 180.85 495.292 174.263C500.195 171.063 505.105 167.491 510.015 164.102C510.205 163.913 510.585 163.913 510.77 163.913C510.96 163.913 511.34 163.913 511.34 164.292C511.34 164.481 510.96 165.044 509.831 165.797C491.321 179.156 465.079 197.225 442.046 202.118C440.91 202.302 439.775 202.492 438.836 202.492L438.836 202.492ZM461.304 144.529C458.849 144.529 457.524 142.651 457.524 140.577C457.524 138.13 459.414 135.5 463.569 135.5C464.888 135.5 466.214 135.684 467.724 136.252C469.423 136.815 470.363 137.757 470.363 138.699C470.363 140.577 468.098 142.651 463.188 144.155C462.433 144.345 461.869 144.529 461.304 144.529Z" fill="url(#paint4_linear_505_1927)"/>
<path d="M515.115 207.574C506.805 207.574 501.14 202.681 500.576 193.836V191.769C500.576 176.709 511.525 160.714 520.969 150.174C526.063 144.345 530.599 142.271 534.183 142.271C539.657 142.271 542.867 146.975 542.867 151.869C542.867 154.505 541.928 157.325 539.847 159.209C539.093 159.961 538.338 160.151 537.583 160.151C536.448 160.151 535.508 159.398 535.128 157.894C534.563 156.01 534.373 154.316 533.808 151.869C532.483 152.621 531.163 153 530.408 153.753C520.779 161.845 507.376 181.04 506.805 194.026V194.968C506.805 201.366 511.34 203.813 516.624 203.813C519.079 203.813 521.344 203.434 523.799 202.681C542.302 196.662 566.661 176.526 581.39 164.482C581.574 164.292 581.954 164.102 582.145 164.102C582.329 164.102 582.519 164.292 582.519 164.665C582.519 164.855 582.519 165.044 582.145 165.418C569.115 178.972 541.928 200.234 523.799 206.07C520.589 207.012 517.76 207.575 515.115 207.575L515.115 207.574Z" fill="url(#paint5_linear_505_1927)"/>
<path d="M585.176 201.364C575.356 201.364 571.392 194.024 571.392 186.495C571.392 183.485 571.957 180.475 573.092 177.839C578.566 164.48 588.195 154.883 601.789 149.237C603.679 148.295 605.379 148.105 606.889 148.105C610.854 148.105 612.928 150.925 612.928 154.125C612.928 156.008 612.364 157.892 611.228 159.397C609.344 162.033 607.454 164.853 604.809 166.548C599.525 170.126 593.67 173.325 588.005 176.524C586.305 177.46 584.421 178.029 582.531 178.029C581.396 178.029 580.266 177.839 578.941 177.46C576.676 180.849 575.731 184.237 575.731 187.247C575.731 193.272 580.076 197.413 587.815 197.413C589.895 197.413 591.97 197.223 594.235 196.661C612.738 192.141 642.951 175.772 657.49 164.664C657.865 164.29 658.245 164.101 658.62 164.101C658.81 164.101 659 164.291 659 164.664C659 164.853 658.81 165.232 658.245 165.795C644.651 177.65 605.754 200.423 586.305 201.364H585.176H585.176ZM582.151 172.193C590.27 169.747 602.354 160.149 603.299 155.446C594.235 158.266 588.195 164.664 582.151 172.193Z" fill="url(#paint6_linear_505_1927)"/>
</g>
<defs>
<linearGradient id="paint0_linear_505_1927" x1="0" y1="140.953" x2="188.816" y2="140.953" gradientUnits="userSpaceOnUse">
<stop stop-color="#81D6EE"/>
<stop offset="0.546875" stop-color="#BCC5E3"/>
<stop offset="1" stop-color="#FCB6BE"/>
</linearGradient>
<linearGradient id="paint1_linear_505_1927" x1="183.543" y1="174.735" x2="271.151" y2="174.735" gradientUnits="userSpaceOnUse">
<stop stop-color="#81D6EE"/>
<stop offset="0.546875" stop-color="#BCC5E3"/>
<stop offset="1" stop-color="#FCB6BE"/>
</linearGradient>
<linearGradient id="paint2_linear_505_1927" x1="261.338" y1="191.107" x2="370.475" y2="191.107" gradientUnits="userSpaceOnUse">
<stop stop-color="#81D6EE"/>
<stop offset="0.546875" stop-color="#BCC5E3"/>
<stop offset="1" stop-color="#FCB6BE"/>
</linearGradient>
<linearGradient id="paint3_linear_505_1927" x1="356.316" y1="182.354" x2="432.22" y2="182.354" gradientUnits="userSpaceOnUse">
<stop stop-color="#81D6EE"/>
<stop offset="0.546875" stop-color="#BCC5E3"/>
<stop offset="1" stop-color="#FCB6BE"/>
</linearGradient>
<linearGradient id="paint4_linear_505_1927" x1="429.207" y1="168.996" x2="511.34" y2="168.996" gradientUnits="userSpaceOnUse">
<stop stop-color="#81D6EE"/>
<stop offset="0.546875" stop-color="#BCC5E3"/>
<stop offset="1" stop-color="#FCB6BE"/>
</linearGradient>
<linearGradient id="paint5_linear_505_1927" x1="500.576" y1="174.923" x2="582.519" y2="174.923" gradientUnits="userSpaceOnUse">
<stop stop-color="#81D6EE"/>
<stop offset="0.546875" stop-color="#BCC5E3"/>
<stop offset="1" stop-color="#FCB6BE"/>
</linearGradient>
<linearGradient id="paint6_linear_505_1927" x1="571.392" y1="174.735" x2="659" y2="174.735" gradientUnits="userSpaceOnUse">
<stop stop-color="#81D6EE"/>
<stop offset="0.546875" stop-color="#BCC5E3"/>
<stop offset="1" stop-color="#FCB6BE"/>
</linearGradient>
</defs>
</svg>
