<svg width="360" height="105" viewBox="0 0 360 105" fill="none" xmlns="http://www.w3.org/2000/svg">
<g clip-path="url(#clip0_505_1820)">
<path d="M42.8965 10.4453C43.162 10.0464 43.2289 9.78038 43.2289 9.58037C43.2289 9.18141 42.9634 8.98139 42.9634 8.64944C42.9634 8.44945 43.0303 8.24946 43.3606 7.85048C44.3578 6.52058 48.4739 1.06494 49.6028 0.39998C50.002 0.133999 50.4013 0 50.7985 0C51.8605 0 52.7239 0.864953 52.7239 2.12887V2.46186C52.659 3.1268 52.3266 3.72577 51.9274 4.32474C50.5999 6.3866 49.2704 8.44947 48.0098 10.5783C41.2367 21.3556 35.1931 32.5989 29.6826 44.0411C29.5489 44.2411 29.4171 44.44 29.4171 44.706C29.4171 44.773 29.482 44.84 29.482 44.973C36.5206 35.5256 42.1 28.5401 50.9323 20.5577C55.3808 16.4329 67.5996 5.85464 74.6383 5.78865H74.77C79.2206 5.78865 81.6769 9.84637 82.0762 13.9041C82.141 14.5031 82.141 15.169 82.141 15.767C82.141 22.2865 78.8882 29.871 75.5685 34.9937C67.2004 47.7668 56.3111 57.8792 42.6311 64.7977C34.9277 68.7224 26.8271 70.9183 18.1934 71.1843C17.861 71.1843 17.5307 71.1843 17.1983 71.3843C16.9328 71.6502 16.8659 71.9162 16.8659 72.1152C16.8659 72.4482 16.9977 72.7812 17.3969 72.9802C27.4898 79.6327 42.8297 89.944 54.8499 92.3399C56.8421 92.7398 58.8343 93.0058 60.8265 93.0058C61.6899 93.0058 62.5533 92.9388 63.4166 92.8718C63.6821 92.8718 64.0794 92.8048 64.4117 92.8048C64.8758 92.8048 65.2751 92.8718 65.342 93.3368V93.4708C65.342 94.2017 63.9476 94.2017 62.9505 94.2687C62.0202 94.3357 61.092 94.4027 60.2287 94.4027C55.2471 94.4027 50.4013 93.2048 45.6853 91.4079C37.384 88.2141 29.5489 83.9574 21.9793 79.2337L16.4019 75.642C16.0695 75.442 15.804 75.309 15.6702 75.309C15.4716 75.309 15.4047 75.5079 15.1392 76.0409C12.085 83.2924 9.09571 90.5429 6.70625 97.9944C6.5725 98.3944 6.37387 98.7254 6.37387 99.0584C6.37387 99.3243 6.44076 99.5903 6.7711 99.8563C6.83799 99.9233 6.90486 99.9903 6.90486 100.122C6.90486 100.721 5.97462 102.118 5.24502 102.118C5.17814 102.118 5.11127 102.053 5.04642 102.053C4.58028 101.852 4.44854 101.454 4.44854 100.922C4.44854 100.39 4.58028 99.8563 4.64715 99.4583C5.97462 93.7367 10.9562 80.5646 13.0801 74.976C13.2139 74.51 13.3456 74.244 13.3456 74.0451C13.3456 73.7791 13.0801 73.5791 12.5492 73.2461C10.2246 71.8492 7.30413 69.9203 4.78092 69.0554C3.58519 68.6564 0.995092 67.6585 0.263461 66.5276C0.0648535 66.2616 0 65.8616 0 65.5296C0 64.6647 0.464102 63.8657 1.59297 63.8657C2.19085 63.8657 3.0542 64.1327 4.11618 64.9307C7.17037 67.1265 10.6907 67.9245 14.3428 68.1905C14.6751 68.1905 14.8738 68.2575 15.0724 68.2575C15.6702 68.2575 15.7371 67.9905 16.1343 67.1265C22.7758 49.9617 33.3347 25.8793 42.8966 10.4453H42.8965ZM25.5644 53.2214C24.5024 54.8183 20.1856 64.7306 19.1236 66.9925C18.9899 67.3255 18.7913 67.5915 18.7913 67.9904V68.1904C19.1236 68.2574 19.456 68.2574 19.7884 68.2574C20.2525 68.2574 20.7166 68.2574 21.2476 68.1904C28.2882 67.5915 34.9945 65.7956 41.3035 62.6688C54.8498 55.9493 65.4736 46.0369 73.7749 33.4638C76.5636 29.073 78.5558 24.3494 79.486 19.1597C79.7515 17.8958 79.8833 16.6319 79.8833 15.368C79.8833 14.1711 79.7515 12.9731 79.3523 11.7762C78.2903 8.78242 76.4967 7.71748 74.5045 7.71748C71.7827 7.71748 68.7285 9.51336 66.337 10.9773C50.533 20.7566 35.5924 37.9875 25.5644 53.2214H25.5644Z" fill="#FFF3DD"/>
<path d="M69.2636 70.984C68.4671 70.984 67.6038 70.3861 67.6038 69.4541C67.6038 69.2542 67.6706 69.0552 67.7375 68.8552C68.003 68.0572 68.2685 67.3253 68.6009 66.5273C69.6629 64.3315 71.1889 62.4026 73.0494 60.7387C74.1114 59.8078 75.5057 59.3418 76.7684 59.3418C78.2945 59.3418 79.7557 60.0078 80.4204 61.1387C80.465 61.1827 80.5089 61.2047 80.5522 61.2047C80.8177 61.2047 81.1501 60.8057 81.4824 60.7387C81.5493 60.7387 81.681 60.6727 81.7479 60.6727C82.2789 60.6727 82.5444 61.2717 82.5444 61.8706C82.5444 62.0696 82.5444 62.2696 82.4796 62.4026C82.0134 63.8655 79.1578 68.7222 79.1578 71.45C79.1578 72.5149 79.624 73.2459 80.8845 73.2459H80.9514C89.9823 73.2459 101.603 63.5995 102.6 63.2005H102.665C102.71 63.2005 102.732 63.2229 102.732 63.2676C102.732 63.2676 102.732 63.3335 102.665 63.4005C98.4822 67.6582 87.2605 74.1108 81.3487 74.3768H80.9514C78.3613 74.3768 77.498 72.7809 77.498 70.851C77.498 69.0552 78.1627 66.9923 78.8923 65.5294C76.5677 67.0593 72.0523 70.1861 69.7946 70.918C69.596 70.984 69.4622 70.984 69.2636 70.984H69.2636ZM71.3227 67.5913C71.3227 67.7913 71.3896 67.8572 71.4544 67.8572C71.5213 67.8572 71.6551 67.7912 71.7868 67.7243C74.5107 66.0614 76.0368 65.1304 78.3614 62.8686C77.9621 62.2026 77.4311 61.9367 76.9001 61.9367C76.6346 61.9367 76.3023 62.0037 75.9699 62.2026C74.5107 62.9346 72.3847 65.2634 71.6551 66.5933C71.5882 66.6604 71.3227 67.2593 71.3227 67.5913L71.3227 67.5913Z" fill="#FFF3DD"/>
<path d="M79.0261 38.053C78.0958 38.053 77.8972 37.787 77.6986 37.455C77.6317 37.322 77.5648 37.122 77.5648 36.989C77.5648 36.5231 77.8972 35.9911 79.1598 35.5921C81.0183 34.9262 82.8119 34.7932 84.7372 34.7932H88.3893C95.361 34.5272 109.838 33.7952 116.876 33.5962C117.94 33.5292 118.139 33.1973 118.603 32.3323C119.466 30.8014 124.247 22.02 125.577 20.5571C126.108 19.9582 126.772 19.4922 127.502 19.4922C128.033 19.4922 128.564 19.6922 129.095 20.1571C129.229 20.2911 129.296 20.4241 129.296 20.6231C129.296 21.1551 128.83 21.887 128.365 22.553C126.904 25.0808 123.319 30.3364 121.925 32.5313C121.724 32.8643 121.592 33.0643 121.592 33.2633C121.592 33.4632 121.791 33.5292 122.255 33.5292C123.584 33.4632 125.644 33.4632 128.167 33.4632C140.053 33.4632 162.231 33.9282 168.607 34.1282C170.267 34.1952 172.391 34.2612 174.053 34.3942C174.782 34.5271 175.048 34.7931 175.048 35.0591C175.048 35.5251 174.45 35.9911 174.383 35.9911H174.318C173.852 35.9911 172.391 35.3921 172.06 35.3261C169.736 35.1261 162.099 35.0591 153.334 35.0591C140.118 35.0591 124.381 35.2591 120.994 35.3921C119.997 35.3921 119.268 36.39 118.935 36.922C111.564 50.3611 96.0257 77.5033 91.9096 91.6063C91.7758 92.0733 91.7089 92.6723 91.6441 93.1372C92.0413 93.4702 92.9047 93.4702 92.9047 94.0692C92.9047 94.1362 92.9047 94.2012 92.8378 94.3352C92.5723 94.9341 91.8427 95.5331 91.1779 95.5331C90.5132 95.5331 89.9174 95.0011 89.9174 93.6022C89.9174 93.0702 89.9822 92.4713 90.1828 91.7403C92.7061 80.6301 110.369 46.6353 116.213 36.789C116.479 36.39 116.546 36.1241 116.546 35.924C116.546 35.5921 116.213 35.5251 115.549 35.5251C105.389 36.057 91.8427 35.924 81.0182 37.8539C80.1549 37.9869 79.4901 38.0529 79.026 38.0529L79.0261 38.053Z" fill="#FFF3DD"/>
<path d="M118.672 76.3063C115.218 76.3063 113.824 73.7114 113.824 71.0506C113.824 69.9857 114.023 68.9217 114.422 67.9898C116.347 63.2671 119.734 59.8744 124.515 57.8785C125.18 57.5455 125.777 57.4785 126.308 57.4785C127.703 57.4785 128.432 58.4764 128.432 59.6074C128.432 60.2733 128.234 60.9383 127.834 61.4703C127.172 62.4022 126.507 63.4001 125.577 63.9991C123.718 65.263 121.659 66.394 119.667 67.5249C119.069 67.8568 118.406 68.0568 117.742 68.0568C117.342 68.0568 116.945 67.9898 116.479 67.8568C115.683 69.0548 115.35 70.2517 115.35 71.3166C115.35 73.4455 116.878 74.9094 119.6 74.9094C120.332 74.9094 121.061 74.8424 121.858 74.6434C128.365 73.0465 138.991 67.2589 144.105 63.3332C144.236 63.2002 144.37 63.1342 144.502 63.1342C144.569 63.1342 144.636 63.2002 144.636 63.3332C144.636 63.4002 144.569 63.5331 144.37 63.7321C139.589 67.9238 125.909 75.9733 119.069 76.3063H118.672L118.672 76.3063ZM117.608 65.9939C120.463 65.13 124.713 61.7362 125.046 60.0733C121.858 61.0713 119.734 63.3331 117.608 65.9939Z" fill="#FFF3DD"/>
<path d="M234.352 2.66104C238.667 2.66104 239.93 6.98475 240.262 10.7105C240.329 11.6414 240.329 12.5734 240.329 13.5043C240.329 29.9372 230.7 49.8949 220.474 61.936C217.353 65.5948 210.778 72.1814 205.732 73.0463C204.935 73.1793 204.072 73.2453 203.34 73.2453C199.954 73.2453 196.966 71.9814 194.309 69.5865C192.384 67.8566 191.786 65.4618 191.786 63.067C191.786 62.069 191.92 61.0051 192.052 60.0072C192.119 59.6072 192.185 59.1422 192.65 59.1422H192.716C193.049 59.2082 193.181 59.4742 193.181 59.9402C193.114 60.5391 193.049 61.4041 193.049 62.402C193.049 64.7968 193.645 67.9896 197.497 69.7195C199.49 70.5844 201.348 71.1164 203.273 71.1164C204.072 71.1164 204.801 71.0504 205.598 70.8504C210.379 69.7195 215.825 64.3309 218.879 60.8051C229.306 48.5639 238.469 29.0722 238.469 13.1723V11.7084C238.27 6.98472 237.007 4.3239 234.087 4.3239H233.886C230.633 4.52389 226.051 8.18265 223.595 10.3115C207.193 24.7475 192.516 48.7639 184.083 68.3896C181.428 74.5762 179.634 78.5679 177.709 85.0205C176.181 90.3431 174.786 95.6647 173.392 101.053C173.06 102.318 172.66 104.58 171.201 104.58H170.869C169.807 104.381 169.474 103.382 169.474 102.117C169.474 100.588 170.005 98.7915 170.204 97.7946C173.591 83.0916 178.838 73.7112 183.75 60.0731C190.193 42.3773 197.497 27.1423 206.461 10.7105C206.66 10.3775 206.727 10.1115 206.727 9.8455C206.727 9.31354 206.528 8.91458 206.528 8.2486C206.528 7.78364 206.66 7.11766 207.126 6.25273C207.789 4.98882 209.848 2.128 211.11 1.53007C211.376 1.39709 211.641 1.33008 211.907 1.33008C212.703 1.33008 213.368 1.86204 213.368 2.72699C213.368 2.85997 213.368 3.05998 213.301 3.19296C213.103 4.1909 212.637 5.18883 212.172 6.11975C209.515 11.3094 192.516 44.3732 192.185 47.433C192.716 47.101 192.848 46.635 193.114 46.2361C200.951 32.93 210.644 19.6919 222.399 9.31356C225.255 6.78573 229.837 2.99297 233.821 2.661H234.352V2.66104Z" fill="#FFF3DD"/>
<path d="M232.697 87.2169C229.176 86.8839 228.248 83.9572 228.248 80.9634C228.248 74.4438 232.962 61.5377 235.22 55.6171C239.735 44.1078 244.583 34.1285 253.415 24.2821C254.346 23.2842 255.274 22.3533 256.338 21.5553C257.467 20.6904 258.595 20.3574 259.657 20.3574C260.387 20.3574 261.119 20.5574 261.65 20.9564C262.58 21.6213 262.91 22.6863 262.91 23.9502C262.91 27.6749 259.99 32.9976 258.861 34.8605C254.81 41.979 245.315 55.1511 236.681 61.1387C235.951 61.6037 235.153 62.2696 234.887 62.8686C232.962 67.7243 230.838 73.5119 230.173 80.5644C230.173 80.8304 230.107 81.0964 230.107 81.4293C230.107 83.4912 230.838 85.6211 233.161 85.686H233.361C241.13 85.686 257.931 65.7954 260.255 63.7995C260.653 63.4665 260.853 63.4006 261.317 63.1346H261.384C261.583 63.1346 261.717 63.2676 261.717 63.4665V63.5336C261.25 64.0655 261.384 63.9325 261.052 64.2655C256.403 68.2572 240.931 87.217 233.161 87.217H232.697L232.697 87.2169ZM236.815 58.8768C236.815 59.0098 236.947 59.1428 237.08 59.1428C237.212 59.1428 237.346 59.0758 237.411 59.0098C245.712 52.8223 252.418 43.3089 257.598 34.1285C258.33 32.7976 261.384 27.21 261.384 24.2821C261.384 23.4842 261.186 22.8852 260.588 22.6193C260.454 22.5533 260.322 22.5533 260.122 22.5533C259.459 22.5533 258.595 22.9522 257.598 23.9502C256.603 25.0141 255.673 26.0791 254.743 27.21C247.704 35.6584 242.725 46.2367 237.944 56.215C237.676 56.748 237.013 58.2109 236.815 58.7439V58.8768H236.815Z" fill="#FFF3DD"/>
<path d="M299.834 67.9907C299.834 66.7267 299.901 65.5298 299.968 64.5319C299.968 63.6 300.035 62.669 300.1 61.4051C299.37 62.0041 298.839 62.2701 298.44 62.669C294.324 66.4608 290.272 70.2525 286.221 74.0453C285.027 75.1092 283.831 76.5731 282.504 76.5731C282.172 76.5731 281.839 76.4401 281.507 76.2401C281.174 76.0411 281.043 75.7751 281.043 75.5081C281.043 74.4442 282.769 72.9803 283.234 71.9164C284.561 67.9907 287.019 64.6649 288.746 61.3381C288.945 60.9391 290.074 59.4092 290.074 59.0103C290.074 58.9432 290.007 58.9432 289.94 58.9432C289.674 58.9432 289.077 59.5422 288.479 60.0742C282.968 65.1968 274.999 73.7123 268.092 74.3772H267.762C265.105 74.3772 264.242 72.7813 264.242 70.7855C264.242 68.9886 264.906 66.9267 265.636 65.4628C263.778 67.1927 262.515 68.7226 260.989 69.6545C260.656 69.8535 260.257 69.9205 259.925 69.9205C259.128 69.9205 258.464 69.3885 258.464 68.5896V68.2576C258.863 65.9288 261.52 62.07 261.785 61.737C262.979 60.4731 264.11 59.7422 265.105 59.7422C265.902 59.7422 266.633 60.2071 267.164 61.1391H267.231C267.497 61.1391 268.625 59.2092 269.023 59.0762H269.221C269.819 59.0762 270.085 59.6752 270.085 60.2741C270.085 60.4731 270.085 60.6731 270.02 60.8061C269.62 62.004 267.296 65.5298 265.902 68.6566C265.504 69.5215 265.371 70.3195 265.371 71.0514C265.371 72.6483 266.234 73.6463 267.497 73.6463C274.801 73.5793 283.963 62.602 288.612 58.8773C289.277 58.3443 289.875 57.9453 290.339 57.9453H290.471C290.937 57.9453 291.202 58.2783 291.334 58.3443C291.468 58.4773 291.535 58.6773 291.535 58.8773C291.535 59.1432 291.468 59.4752 291.401 59.6752C290.406 62.403 288.479 66.0618 286.953 68.7896C286.687 69.3216 286.488 69.8535 286.488 70.5855C289.342 68.1236 296.713 61.4051 298.971 60.0082C299.504 59.6752 299.901 59.5422 300.3 59.5422C301.231 59.5422 301.826 60.3402 301.893 61.6711V61.9371C301.893 63.201 301.695 65.3968 301.695 67.4587C301.695 70.0535 302.027 72.5814 303.354 73.3133C304.151 73.7123 305.014 73.9123 305.878 73.9123C312.651 73.9123 321.019 63.201 321.815 63.201H321.882C321.947 63.201 321.947 63.268 321.947 63.401C321.947 63.534 321.882 63.7329 321.749 63.8659C318.362 67.6587 311.125 75.0432 305.28 75.0432C304.285 75.0432 303.354 74.8432 302.491 74.3772C300.233 73.2463 299.834 70.5855 299.834 67.9907H299.834ZM266.1 62.802C265.636 62.07 265.371 61.8041 264.971 61.8041C264.773 61.8041 264.507 61.937 264.175 62.07C263.046 62.669 260.922 66.5277 260.922 67.3927C260.922 67.4587 260.922 67.5257 260.989 67.5257C261.054 67.5257 261.121 67.5257 261.187 67.4587C262.714 66.5277 263.711 64.9968 266.1 62.802V62.802Z" fill="#FFF3DD"/>
<path d="M317.699 94.7999C314.578 94.7999 312.72 93.005 312.72 90.1442C312.72 88.5463 313.318 86.5504 314.578 84.4226C319.16 76.5721 328.591 71.2494 336.626 68.3896C336.093 67.1257 322.813 68.5226 321.552 64.0649C321.485 63.7989 321.418 63.4659 321.418 63.2C321.418 57.7453 332.972 48.9629 337.621 48.9629C337.82 48.9629 338.021 49.0299 338.152 49.0299C339.547 49.2299 341.207 50.4938 341.606 51.8237C341.673 51.9567 341.673 52.0897 341.673 52.2897C341.673 53.2876 340.876 54.9505 339.812 54.9505C339.214 54.9505 338.619 54.5515 338.021 53.3546C337.82 52.8887 337.356 52.6887 336.691 52.6887C333.039 52.6887 323.743 59.3412 323.743 62.934V63.0669C323.877 64.6639 327.196 65.1958 330.516 65.5288C333.903 65.7948 337.289 65.8608 338.351 67.7236C342.802 66.1277 353.691 63.7989 358.407 63.1999C358.739 63.1339 359.005 63.1339 359.27 63.1339C359.735 63.1339 360 63.1999 360 63.3329C360 63.4659 359.735 63.5989 359.005 63.7319C354.887 64.3978 343.464 66.9257 339.281 68.7215C339.15 68.7885 339.15 68.8545 339.15 68.9875C339.15 69.3875 339.747 70.4514 339.747 72.3803C339.747 73.4452 339.547 74.8421 338.884 76.572C336.029 83.8235 329.521 90.9421 322.282 93.8029C320.555 94.4668 319.029 94.7998 317.699 94.7998L317.699 94.7999ZM313.782 90.0772C313.782 92.272 315.243 93.403 317.501 93.403C318.563 93.403 319.892 93.137 321.286 92.605C328.591 89.8782 335.763 81.5618 337.954 74.0443C338.152 73.4453 338.219 72.7803 338.219 72.1814C338.219 71.3164 338.021 70.4515 337.49 69.5865C330.449 71.8484 319.493 78.169 315.575 84.8875C314.313 87.0174 313.782 88.7473 313.782 90.0772V90.0772Z" fill="#FFF3DD"/>
</g>
<defs>
<clipPath id="clip0_505_1820">
<rect width="360" height="104.581" fill="white"/>
</clipPath>
</defs>
</svg>
