<svg width="276" height="148" viewBox="0 0 276 148" fill="none" xmlns="http://www.w3.org/2000/svg">
<g clip-path="url(#clip0_512_1236)">
<path d="M10.9988 19.9406C27.5344 16.7531 44.316 14.057 61.0156 14.057H62.7261C63.3775 14.057 63.7852 13.7302 64.1109 13.2389C64.9264 12.0143 67.9397 7.60212 69.0808 6.78405C69.486 6.45732 69.9758 6.375 70.3836 6.375C71.6043 6.375 72.5838 7.43752 72.5838 8.66214C72.5838 8.82674 72.5018 8.99137 72.5018 9.15348C72.2556 10.5427 70.3836 12.8323 69.486 14.1393C70.2195 14.3837 70.7093 14.3837 71.2786 14.3837C86.8371 15.1195 108.914 16.9177 123.739 20.9208C123.903 20.9208 125.206 21.0032 125.206 22.0656C125.206 22.2303 125.124 22.3101 125.124 22.4747C124.962 23.0458 124.473 23.2105 123.903 23.2105C123.17 23.2105 122.354 22.9636 121.867 22.7191C119.911 21.8213 117.874 21.2476 115.838 20.6764C109.891 18.9605 103.783 18.3893 97.6718 17.8157C88.386 17.0001 79.1001 16.4264 69.7322 16.182H69.4861C66.9626 16.182 67.2883 17.6535 64.5187 20.3497C62.1569 22.7191 39.5899 63.663 37.228 68.3196C37.0664 68.4842 36.9023 68.7286 36.9023 69.0554C36.9023 69.1377 36.9843 69.3023 36.9843 69.3821H37.6357C38.2051 69.3821 38.7769 69.3821 39.2642 69.3023C45.7009 68.7286 52.1351 68.4019 58.5718 68.4019C60.8516 68.4019 63.2135 68.4842 65.4958 68.5665C68.427 68.7286 70.7913 69.3023 70.7913 69.7088C70.7913 70.1179 69.4861 70.3648 66.1472 70.3648H64.111C57.4307 70.3648 50.7503 70.936 44.234 71.5894C41.5465 71.8338 38.8589 72.2429 36.1689 72.4873C35.3559 72.5696 34.8661 72.8964 34.5404 73.6321C33.0736 76.655 30.8758 80.4162 30.1424 83.6037C26.0676 102.317 21.1797 115.229 13.4428 131.247C12.5453 132.801 10.5091 136.068 8.96268 137.131C8.39086 137.457 7.90356 137.704 7.33177 137.704C6.02901 137.704 4.88786 136.395 4.88786 133.943C4.88786 133.699 4.96991 133.372 4.96991 133.045C5.21355 130.184 5.94698 127.488 6.76244 124.792C9.69365 115.229 10.9989 112.369 14.9892 103.297C19.2256 93.8172 22.2389 88.8339 26.8831 79.6804C27.6985 78.0443 28.4319 76.1662 28.4319 74.4502V74.2033C28.4319 73.8765 28.1038 73.7967 27.7781 73.7967C27.3728 73.7967 26.8831 73.9589 26.6394 74.0411C24.6828 74.3679 19.0616 75.595 17.5152 75.6748H17.2715C16.0483 75.6748 15.3149 75.1037 15.3149 74.4502C15.3149 73.8765 15.7227 73.3054 16.6997 72.8963C19.1436 71.754 25.3342 70.6915 28.2679 70.3648C28.6756 70.2825 29.1629 70.4446 29.7347 67.9929C30.4682 64.4786 31.1195 58.9216 31.1195 53.2824C31.1195 44.7025 29.6527 35.7136 24.929 32.8529C14.9071 26.7247 3.91074 28.1937 1.14115 26.3157C0.407716 25.8243 0 25.1709 0 24.5174C0 24.026 0.243637 23.4549 0.733431 23.0458C2.60801 21.3299 8.47289 20.432 10.9988 19.9406H10.9988ZM18.4921 21.0032C14.4198 21.8212 10.3474 22.4747 6.27262 23.5372C5.70329 23.6195 5.05192 23.6993 4.40054 24.273C12.2196 25.8243 18.3306 26.2334 25.4982 30.7278C31.5272 34.4067 33.4813 43.7223 33.4813 53.6116V54.1827C33.4813 59.2484 32.912 65.9501 32.0145 68.973C32.0965 68.7286 32.2606 68.5665 32.3401 68.3196C38.2871 56.3901 54.3353 28.3584 61.585 17.0799C61.667 16.9177 61.9107 16.7531 61.9107 16.5087C61.9107 16.4264 61.8286 16.3441 61.7491 16.182C49.2859 16.182 30.5476 18.6337 18.4921 21.0032V21.0032ZM25.988 90.3029C24.8468 90.712 16.2919 109.999 15.2328 112.695C14.0941 115.638 8.71653 129.204 8.71653 131.9C13.93 126.752 23.5441 98.7207 25.988 90.3029Z" fill="#FDF1DC"/>
<path d="M74.9481 86.3822C74.9481 85.3995 75.602 84.337 76.579 84.337C76.8227 84.337 76.9868 84.4193 77.2304 84.5016C77.4741 84.5839 77.7202 84.6637 77.9638 84.6637C78.2895 84.6637 78.6152 84.5839 79.023 84.4193C89.1243 80.8252 99.4693 77.9644 110.058 76.1661C111.199 75.9217 111.85 75.4304 112.422 74.4502C122.198 57.8591 133.764 42.4952 146.147 27.7872C150.545 22.557 164.965 6.78404 172.702 5.47711C173.11 5.39479 173.517 5.3125 173.925 5.3125C177.672 5.3125 179.382 9.07118 179.546 12.6677V13.7302C179.546 28.523 165.045 56.2255 159.098 69.7088C159.423 69.7911 159.749 69.8734 159.995 69.8734C160.482 69.8734 160.972 69.7911 161.38 69.7088C166.837 69.3023 172.294 68.8932 177.833 68.8932H180.116C180.603 68.8932 181.011 68.973 181.093 69.5467C181.093 70.1178 180.767 70.2825 180.277 70.2825C179.952 70.2825 179.626 70.2001 179.382 70.2001C172.702 70.2825 166.104 71.0182 159.505 71.6717C158.364 71.754 156.979 72.4873 156.492 73.5498C144.111 99.6211 137.105 113.022 125.047 139.255C123.826 141.707 122.524 143.832 121.382 146.366C120.975 147.182 120.731 148 119.998 148C119.754 148 119.59 147.918 119.346 147.838C119.021 147.673 118.856 147.346 118.856 146.937C118.856 146.202 119.346 145.221 119.59 144.812L124.803 135.988C136.29 111.062 142.644 98.4762 154.292 73.6321C154.456 73.3053 154.618 72.9786 154.618 72.5695V72.4074H154.292C149.812 72.4074 120.975 77.473 116.495 78.3734C115.353 78.6178 114.54 79.0269 113.887 80.0894C110.304 85.7262 102.808 98.7206 99.9591 105.096C99.7129 105.667 99.6309 105.994 99.6309 106.241C99.6309 107.138 100.528 106.976 100.528 108.201C100.528 108.448 100.528 108.854 100.364 109.346C99.7129 111.797 98.2461 113.758 96.4561 115.474C95.8022 116.047 95.0712 116.292 94.2558 116.292C92.6273 116.292 90.9964 115.067 90.9964 113.104C90.9964 112.695 91.0785 112.289 91.2425 111.797C93.0326 106.729 104.519 87.3623 107.778 81.9675C108.104 81.4786 108.512 80.9873 108.673 80.2515C108.429 80.1692 108.268 80.0893 108.104 80.0893C107.778 80.0893 107.37 80.2515 107.045 80.3338C98.6538 82.2144 90.345 84.5838 82.2003 87.4446C80.8155 87.9334 78.8589 88.6692 77.3921 88.6692C77.0664 88.6692 76.8228 88.6692 76.5791 88.5869C75.4379 88.1778 74.9482 87.2799 74.9482 86.3821L74.9481 86.3822ZM117.064 74.8592C129.773 73.1432 141.911 71.5894 154.7 70.2825C155.595 70.2001 156.084 69.8734 156.41 68.973C161.867 57.2879 172.051 36.6938 175.228 24.5997C175.797 22.557 177.02 17.5712 177.02 13.6479C177.02 10.5427 176.205 8.00866 173.761 8.00866C172.784 8.00866 171.643 8.41771 170.096 9.23578C163.824 12.8323 154.782 22.2303 150.055 27.5403C138.977 39.9636 129.283 53.447 120.813 67.8307C119.508 70.0355 118.205 72.1605 117.064 74.8592V74.8592Z" fill="#FDF1DC"/>
<path d="M191.199 122.911C191.199 122.749 191.199 122.502 191.117 122.258C190.466 119.235 190.14 116.048 190.14 112.778C190.14 96.5957 197.146 77.7175 203.58 64.8054C205.047 61.8648 205.863 58.8419 206.35 55.6543C208.468 39.7168 213.438 22.9636 225.332 11.5229C232.174 4.90348 241.624 0 251.317 0C253.028 0 254.738 0.164606 256.449 0.491339C267.773 2.61635 274.859 13.8126 275.836 24.8442C275.918 26.2334 276 27.705 276 29.0942C276 46.6629 267.691 67.1773 259.79 81.7231C252.702 94.6353 244.555 106.894 234.943 118.09C233.723 119.479 232.499 120.786 231.279 122.176C230.871 122.585 230.381 122.911 230.22 123.565C231.684 124.056 233.151 123.974 234.618 124.218C241.706 125.119 248.548 126.835 255.064 129.858C255.715 130.102 256.774 130.511 256.774 131.165C256.774 131.247 256.774 131.411 256.692 131.491C256.531 131.983 256.205 132.147 255.879 132.147C255.472 132.147 255.064 131.9 254.656 131.738C246.265 127.897 237.305 126.67 228.263 126.181H228.019C227.368 126.181 226.878 126.508 226.47 126.917C221.013 131.983 213.356 137.866 206.106 137.866C202.359 137.866 198.692 136.315 195.515 132.309C192.666 128.713 193.399 127.488 191.932 127.488C191.689 127.488 191.443 127.571 191.199 127.571C188.347 127.98 179.549 129.449 176.618 129.449H176.21C174.092 129.204 173.197 127.733 173.197 126.181C173.197 124.627 174.092 122.994 175.72 122.585C175.884 122.502 176.128 122.502 176.292 122.502C177.025 122.502 177.677 122.994 178.002 123.974C178.164 124.627 178.41 124.71 178.818 124.71H179.305C182.89 124.139 186.475 123.73 190.058 123.483C190.873 123.403 191.199 123.403 191.199 122.911L191.199 122.911ZM193.479 114.085C193.479 116.536 193.643 118.908 194.051 121.113C194.459 122.911 194.294 123.238 195.354 123.238C195.679 123.238 196.087 123.156 196.656 123.156C200.975 122.911 205.373 122.749 209.691 122.749C213.682 122.749 217.592 122.911 221.585 123.076C222.562 123.156 223.621 123.32 224.598 123.32C225.006 123.32 225.493 123.32 225.901 123.156C227.204 122.667 228.101 121.195 229.079 120.051C247.489 99.5388 265.735 71.345 271.438 43.8046C272.415 39.2279 273.148 34.4067 273.148 29.583C273.148 22.3101 271.52 15.1195 266.55 9.56252C262.314 4.82114 256.939 2.86076 251.235 2.86076C246.347 2.86076 241.216 4.33231 236.654 6.70176C222.072 14.3014 214.823 29.9123 210.83 45.1116C210.017 48.0522 209.284 51.0776 208.794 54.2651C209.527 53.856 209.691 53.2025 210.017 52.6289C221.503 33.0175 229.648 27.8671 233.477 27.8671C235.269 27.8671 236.167 28.8498 236.167 30.0744C236.167 30.6455 235.92 31.2192 235.513 31.7904C233.069 35.0602 224.68 37.8387 218.813 46.2564C214.659 52.2224 211.158 58.5126 207.817 64.8876C207.329 65.9502 207.165 67.8307 207.165 69.7088C207.165 71.5894 207.329 73.47 207.409 74.6123C208.386 83.4391 211.81 84.1749 211.81 85.1551C211.81 85.2374 211.727 85.3995 211.563 85.5641C211.402 85.6464 211.32 85.7262 211.158 85.7262C210.586 85.7262 209.853 84.8284 209.366 84.337C205.942 80.4162 205.863 75.3481 205.211 70.6092C204.886 71.0981 204.721 71.2627 204.639 71.5071C199.508 82.7033 193.479 100.028 193.479 114.085H193.479ZM222.562 126.261C222.562 126.181 222.562 126.099 222.48 125.934H218.162C210.83 125.934 203.419 126.261 195.843 127.079C197.959 131.656 201.544 135.088 206.35 135.088C207.165 135.088 208.06 135.006 208.958 134.761C213.764 133.616 218.569 129.858 222.236 126.752C222.398 126.67 222.562 126.508 222.562 126.261H222.562Z" fill="#FDF1DC"/>
</g>
<defs>
<clipPath id="clip0_512_1236">
<rect width="276" height="148" fill="white"/>
</clipPath>
</defs>
</svg>
