<svg width="406" height="88" viewBox="0 0 406 88" fill="none" xmlns="http://www.w3.org/2000/svg">
<g clip-path="url(#clip0_505_1642)">
<path d="M6.67973 8.65653C16.7242 6.72713 26.9183 5.09516 37.0624 5.09516H38.1015C38.4972 5.09516 38.7448 4.89739 38.9427 4.59999C39.438 3.85873 41.2684 1.18808 41.9616 0.692908C42.2078 0.495138 42.5053 0.445312 42.753 0.445312C43.4945 0.445312 44.0895 1.08845 44.0895 1.8297C44.0895 1.92934 44.0397 2.02899 44.0397 2.12711C43.8902 2.96802 42.753 4.35391 42.2078 5.14499C42.6533 5.29293 42.9508 5.29293 43.2967 5.29293C52.7477 5.7383 66.1584 6.82678 75.1639 9.24984C75.2636 9.24984 76.055 9.29966 76.055 9.94278C76.055 10.0424 76.0051 10.0907 76.0051 10.1904C75.9069 10.5361 75.6094 10.6357 75.2636 10.6357C74.8181 10.6357 74.3227 10.4863 74.0267 10.3383C72.8382 9.79485 71.6013 9.44762 70.3644 9.10191C66.752 8.06323 63.0414 7.71752 59.3292 7.37029C53.6885 6.87661 48.0479 6.52938 42.3573 6.38143H42.2078C40.6749 6.38143 40.8728 7.27215 39.1904 8.90414C37.7557 10.3383 24.0474 35.1215 22.6126 37.9401C22.5145 38.0397 22.4148 38.1877 22.4148 38.3854C22.4148 38.4353 22.4646 38.5349 22.4646 38.5832H22.8603C23.2062 38.5832 23.5535 38.5832 23.8495 38.5349C27.7595 38.1877 31.6679 37.9899 35.5779 37.9899C36.9628 37.9899 38.3975 38.0397 39.7839 38.0895C41.5645 38.1877 43.0007 38.5349 43.0007 38.781C43.0007 39.0286 42.2078 39.178 40.1796 39.178H38.9427C34.8847 39.178 30.8268 39.5237 26.8685 39.9193C25.2359 40.0672 23.6033 40.3148 21.9693 40.4628C21.4754 40.5126 21.1779 40.7104 20.9801 41.1557C20.0891 42.9855 18.754 45.2621 18.3085 47.1915C15.8332 58.5187 12.8641 66.3344 8.16431 76.0296C7.61912 76.9702 6.38225 78.9479 5.44288 79.591C5.09553 79.7888 4.79952 79.9382 4.45218 79.9382C3.66082 79.9382 2.96763 79.1456 2.96763 77.6616C2.96763 77.5137 3.01747 77.3159 3.01747 77.1181C3.16547 75.3865 3.61099 73.7545 4.10634 72.1225C5.8869 66.3344 6.67976 64.6028 9.10369 59.112C11.6771 53.3737 13.5075 50.3573 16.3286 44.8167C16.824 43.8264 17.2695 42.6896 17.2695 41.6509V41.5014C17.2695 41.3037 17.0701 41.2554 16.8723 41.2554C16.6261 41.2554 16.3286 41.3535 16.1806 41.4033C14.9921 41.6011 11.5774 42.3438 10.6381 42.3921H10.4901C9.74705 42.3921 9.30154 42.0464 9.30154 41.6509C9.30154 41.3037 9.54922 40.9579 10.1427 40.7104C11.6273 40.0189 15.3878 39.3758 17.1698 39.178C17.4175 39.1282 17.7135 39.2263 18.0609 37.7423C18.5064 35.6151 18.9021 32.2515 18.9021 28.8381C18.9021 23.6448 18.011 18.2038 15.1416 16.4722C9.0538 12.7629 2.37408 13.6521 0.69169 12.5153C0.246167 12.2179 0 11.8224 0 11.4268C0 11.1294 0.147997 10.7837 0.444007 10.5361C1.58272 9.49742 5.14534 8.95393 6.67973 8.65653ZM11.2316 9.29966C8.7578 9.79484 6.28405 10.1904 3.8088 10.8335C3.46297 10.8833 3.06729 10.9317 2.67161 11.2789C7.42127 12.2179 11.1334 12.4655 15.4874 15.186C19.1497 17.4128 20.3367 23.0515 20.3367 29.0374V29.3831C20.3367 32.4493 19.9909 36.5058 19.4457 38.3356C19.4955 38.1876 19.5952 38.0895 19.6435 37.9401C23.256 30.7192 33.0045 13.7518 37.4083 6.92492C37.4581 6.82678 37.6061 6.72715 37.6061 6.5792C37.6061 6.52938 37.5563 6.47957 37.508 6.38143C29.9372 6.38143 18.5546 7.86546 11.2316 9.29968V9.29966ZM15.7849 51.2465C15.0917 51.4941 9.89501 63.1685 9.25165 64.8005C8.55996 66.5819 5.29335 74.7932 5.29335 76.4251C8.46029 73.3091 14.3003 56.3417 15.7849 51.2465Z" fill="#FFF3DD"/>
<path d="M44.9821 63.6146C42.3588 63.367 41.6671 61.19 41.6671 58.9647C41.6671 54.1171 45.1799 44.52 46.8623 40.1177C50.2271 31.5608 53.8395 24.1406 60.4211 16.8186C61.1143 16.0774 61.806 15.3844 62.5988 14.7911C63.44 14.148 64.2812 13.9004 65.0726 13.9004C65.6163 13.9004 66.1615 14.0499 66.5571 14.3458C67.2503 14.8409 67.4965 15.632 67.4965 16.5726C67.4965 19.3413 65.3203 23.2997 64.4791 24.6841C61.4601 29.9771 54.3847 39.772 47.9512 44.2241C47.4075 44.5698 46.8125 45.065 46.6146 45.5103C45.1799 49.12 43.5972 53.4242 43.1018 58.6673C43.1018 58.8651 43.052 59.0629 43.052 59.3105C43.052 60.8443 43.5972 62.428 45.3279 62.4763H45.4774C51.2661 62.4763 63.7859 47.6858 65.5181 46.2018C65.8141 45.9542 65.9636 45.9059 66.3095 45.7081H66.3593C66.5073 45.7081 66.607 45.8063 66.607 45.9542V46.004C66.2596 46.3996 66.3593 46.3014 66.1116 46.549C62.6472 49.5171 51.1181 63.6146 45.3279 63.6146H44.9821L44.9821 63.6146ZM48.0508 42.5423C48.0508 42.6404 48.149 42.74 48.2487 42.74C48.3468 42.74 48.4465 42.6902 48.4948 42.6404C54.6807 38.0404 59.6781 30.966 63.5382 24.1406C64.0834 23.1503 66.3593 18.9956 66.3593 16.8186C66.3593 16.2253 66.2113 15.7799 65.7658 15.5822C65.6661 15.5339 65.5679 15.5339 65.4184 15.5339C64.9246 15.5339 64.2812 15.8298 63.5382 16.5726C62.7967 17.3636 62.1035 18.1547 61.4103 18.9956C56.1653 25.2774 52.4546 33.1429 48.892 40.5631C48.6927 40.9586 48.1988 42.0471 48.0508 42.4426V42.5423H48.0508Z" fill="#FFF3DD"/>
<path d="M65.1723 56.4896C64.4292 56.4896 63.588 55.6985 63.44 54.9074C63.292 54.364 63.2422 53.7691 63.2422 53.2257C63.2422 52.9283 63.2422 52.6323 63.292 52.3847C63.8357 49.2189 66.0135 44.9646 68.4872 43.0352C69.0807 42.5415 69.9219 42.2441 70.7148 42.2441C71.9018 42.2441 73.039 42.9371 73.039 44.717C73.039 45.0144 72.9907 45.3103 72.9409 45.6077C72.8412 46.0531 72.595 47.0918 72.4455 47.6851C73.5344 48.1304 74.7713 48.3282 76.1078 48.3282C79.3246 48.3282 82.937 47.1914 85.361 46.0531C85.5089 46.0033 85.6585 45.9535 85.7566 45.9535C85.9061 45.9535 86.0043 46.0033 86.0043 46.1029C86.0043 46.2011 85.8563 46.3988 85.4606 46.5483C83.7782 47.3892 79.9181 48.6256 76.5035 48.8234C76.1577 48.8234 75.8103 48.8732 75.4645 48.8732C74.1777 48.8732 72.9409 48.7238 72.1495 48.2784C70.7631 51.2465 69.3783 54.1164 66.607 55.9461C66.2113 56.2435 65.716 56.4896 65.2221 56.4896H65.1723H65.1723ZM64.5289 54.7097C64.5289 55.155 64.6271 55.5008 64.9744 55.5008C65.1723 55.5008 65.4199 55.3528 65.8156 55.1052C67.5463 53.819 70.2693 49.8621 71.0108 47.6353C70.3176 46.9921 70.0216 46.4486 69.6259 45.41C67.5962 47.6851 64.9744 51.3959 64.5788 53.9669C64.5289 54.2145 64.5289 54.5119 64.5289 54.7097L64.5289 54.7097ZM70.6151 44.9148C70.6151 45.5579 71.0606 46.2509 71.4065 46.5966C71.6541 45.8055 71.9517 45.0642 71.9517 44.3713C71.852 44.1735 71.6043 44.0739 71.4065 44.0739C71.0606 44.0739 70.6649 44.2717 70.6151 44.717V44.9148V44.9148Z" fill="#FFF3DD"/>
<path d="M84.3732 55.3524C83.5819 55.3524 82.9868 54.759 82.8887 53.7687V53.275C82.8887 52.2363 83.0865 50.9984 83.4324 50.1092C84.6209 46.7456 84.7689 46.498 86.8968 43.6779C87.3921 43.0348 88.0355 42.4913 88.629 41.9961C88.9749 41.7485 89.3706 41.6504 89.7179 41.6504C90.1136 41.6504 90.4096 41.7485 90.6074 41.9961C90.7569 42.1939 90.8053 42.3916 90.8053 42.6392C90.8053 43.4303 90.0638 44.5188 89.2226 44.7664C88.629 44.9642 88.2817 45.3099 87.9358 45.8051C86.2535 48.1798 86.4015 47.9322 85.2144 50.6527C84.8686 51.4936 84.571 52.3843 84.571 53.423V53.6706C87.59 52.7799 91.6963 48.7233 93.7744 46.5962C94.2199 46.3003 94.7651 45.6073 95.2106 45.3099C95.4084 45.162 95.7044 45.0638 96.0518 45.0638C96.6453 45.0638 97.2388 45.4095 97.2388 46.0527C97.2388 46.3003 97.189 46.5962 96.9911 46.9434C95.9521 48.5256 93.4784 51.6416 93.4784 56.2431V56.391C93.5282 57.4795 94.022 58.0728 94.8632 58.0728C95.1608 58.0728 95.4084 58.023 95.7543 57.9249C100.406 56.3412 104.166 51.1977 105.205 46.6958C105.205 46.646 104.414 46.1025 104.414 44.6185V44.469C104.464 43.6281 105.155 42.9367 105.75 42.9367C106.294 42.9367 106.74 43.382 106.74 44.5686C106.74 45.1121 106.492 45.6571 106.492 46.1025C106.492 46.4482 106.64 46.6958 106.987 46.8437C108.322 47.4371 109.907 47.6846 111.441 47.6846C112.232 47.6846 113.024 47.5865 113.767 47.4869C115.597 47.1412 116.934 46.4482 118.516 45.7553C118.616 45.7069 118.714 45.7069 118.814 45.7069C118.962 45.7069 119.062 45.7553 119.062 45.8051C119.062 45.9047 118.962 46.0028 118.714 46.1508C116.388 47.4869 113.915 48.13 111.341 48.13C109.561 48.13 107.779 47.8326 105.948 47.2393C104.711 51.6914 100.752 57.2817 96.1001 58.716C95.6546 58.8639 95.2106 58.9137 94.8134 58.9137C93.4784 58.9137 92.3895 58.1725 92.2415 56.6386C92.2415 56.3412 92.1917 55.9955 92.1917 55.6981C92.1917 51.6914 94.2199 48.6252 94.5672 47.9322C91.8458 50.0594 88.1835 54.2141 85.1147 55.2044C84.8686 55.3026 84.6209 55.3524 84.3732 55.3524Z" fill="#FFF3DD"/>
<path d="M136.186 56.4896C135.443 56.4896 134.602 55.6985 134.454 54.9074C134.306 54.364 134.256 53.7691 134.256 53.2257C134.256 52.9283 134.256 52.6323 134.306 52.3847C134.849 49.2189 137.027 44.9646 139.501 43.0352C140.095 42.5415 140.936 42.2441 141.729 42.2441C142.916 42.2441 144.053 42.9371 144.053 44.717C144.053 45.0144 144.004 45.3103 143.955 45.6077C143.855 46.0531 143.609 47.0918 143.459 47.6851C144.548 48.1304 145.785 48.3282 147.122 48.3282C150.338 48.3282 153.951 47.1914 156.375 46.0531C156.523 46.0033 156.672 45.9535 156.77 45.9535C156.92 45.9535 157.018 46.0033 157.018 46.1029C157.018 46.2011 156.87 46.3988 156.474 46.5483C154.792 47.3892 150.932 48.6256 147.517 48.8234C147.171 48.8234 146.824 48.8732 146.478 48.8732C145.192 48.8732 143.955 48.7238 143.163 48.2784C141.777 51.2465 140.392 54.1164 137.621 55.9461C137.225 56.2435 136.73 56.4896 136.236 56.4896H136.186H136.186ZM135.543 54.7097C135.543 55.155 135.641 55.5008 135.988 55.5008C136.186 55.5008 136.434 55.3528 136.829 55.1052C138.56 53.819 141.283 49.8621 142.025 47.6353C141.331 46.9921 141.035 46.4486 140.64 45.41C138.61 47.6851 135.988 51.3959 135.593 53.9669C135.543 54.2145 135.543 54.5119 135.543 54.7097L135.543 54.7097ZM141.629 44.9148C141.629 45.5579 142.074 46.2509 142.42 46.5966C142.668 45.8055 142.965 45.0642 142.965 44.3713C142.866 44.1735 142.618 44.0739 142.42 44.0739C142.074 44.0739 141.679 44.2717 141.629 44.717V44.9148V44.9148Z" fill="#FFF3DD"/>
<path d="M139.699 86.9618C138.908 86.9618 138.214 86.3187 138.214 84.3908V84.2912C138.264 82.2138 138.66 80.1365 139.403 78.2071C140.49 75.1892 141.629 72.1713 142.966 69.2531C147.963 58.4694 157.216 43.383 164.936 34.2811C166.421 32.5494 168.053 30.8676 169.736 29.284C170.775 28.2951 172.012 27.504 173.2 26.7613C173.842 26.3657 174.535 26.168 175.129 26.168C176.267 26.168 177.159 26.8609 177.159 27.8996C177.159 28.1472 177.109 28.3948 177.011 28.6907C176.663 29.5814 175.922 30.5219 175.179 30.5219C174.733 30.5219 174.337 30.2245 173.992 29.3836C173.249 29.9271 172.507 30.4223 171.864 31.0156C170.429 32.4015 168.993 33.7859 167.658 35.2699C164.589 38.7331 156.672 49.615 154.099 53.5719C154.643 53.3741 154.89 53.276 155.188 53.1265C160.928 49.9607 166.915 47.438 173.398 46.1035C174.931 45.7562 176.565 45.7562 178.198 45.6581H178.346C178.643 45.6581 178.989 45.7562 179.335 45.806V46.0536C179.137 46.1035 178.989 46.2016 178.841 46.2016C178.593 46.2016 178.296 46.1517 178 46.1517C171.764 46.1517 161.867 50.7035 157.018 53.6217C155.435 54.5622 153.999 55.7489 152.564 56.9355C151.823 57.5303 151.427 58.2217 151.427 59.1124C151.427 59.4099 151.476 59.7058 151.575 60.053C151.773 60.7942 151.873 61.537 151.873 62.2783C151.873 63.7623 151.525 65.2962 151.229 66.7802C150.784 69.0553 149.943 71.2323 148.904 73.3096C147.467 76.2776 145.983 79.2457 144.4 82.1639C143.707 83.4502 142.668 84.6368 141.729 85.8249C141.233 86.4681 140.392 86.9617 139.699 86.9617L139.699 86.9618ZM139.749 84.4889C139.749 84.9343 139.799 85.28 139.897 85.6272C140.342 85.2317 140.69 85.0324 140.986 84.7365C141.629 83.9454 142.372 83.2027 142.916 82.312C145.291 78.355 147.419 74.2502 149.102 69.9461C149.745 68.3141 150.586 65.0486 150.586 62.5259C150.586 61.4873 150.486 60.5965 150.141 59.9534C149.843 60.3988 149.645 60.6464 149.447 60.9921C147.467 64.8011 145.439 68.6598 143.559 72.5684C142.42 74.8435 139.749 81.0257 139.749 84.489L139.749 84.4889Z" fill="#FFF3DD"/>
<path d="M223.971 56.7372C223.525 58.2711 221.793 64.3068 221.793 65.8392V65.889C222.189 65.7909 222.387 65.4935 222.586 65.2459C224.515 63.0206 226.297 60.6956 227.979 58.3209C234.611 49.1691 240.993 39.9193 247.278 30.5697C251.83 23.7927 256.482 17.1154 261.281 10.5361C263.459 7.61787 264.795 4.64982 267.169 1.73159C267.665 1.13828 268.11 0.890685 268.506 0.890685C268.902 0.890685 269.199 1.2364 269.199 1.63194C269.199 1.7814 269.199 1.92935 269.1 2.07731C266.923 6.43127 264.25 10.6358 261.727 14.8403C258.955 19.5399 256.531 24.3875 254.502 29.4329C253.364 32.1534 252.176 34.8739 251.089 37.6441C249.9 40.6605 249.009 43.778 248.02 46.894C246.931 50.4554 246.09 54.0666 245.298 57.628C244.309 61.9804 243.27 71.034 243.022 75.4363C242.973 76.3768 242.923 77.5635 242.923 78.7999C242.923 81.6683 243.22 84.884 244.755 86.6654C244.953 86.8632 245.001 87.0609 245.001 87.2587C245.001 87.5063 244.803 87.7041 244.555 87.7041C244.357 87.7041 244.111 87.6044 243.913 87.3568C241.786 85.1814 241.438 81.2245 241.388 78.3545V76.3768C241.388 70.2913 241.786 64.2072 242.923 58.173C245.694 43.3825 249.85 33.2419 256.382 20.0834C256.531 19.786 256.63 19.4901 256.877 19.0447C256.334 19.4403 256.136 19.8358 255.888 20.183C250.346 28.047 245.001 36.0122 239.756 44.0256C237.53 47.4874 225.406 66.2845 222.041 68.7091C221.595 69.005 221.2 69.1545 220.804 69.1545C219.963 69.1545 219.319 68.5113 219.22 67.373V66.8296C219.22 60.9418 225.604 40.958 227.138 36.4077C230.057 27.7995 233.917 19.0448 237.58 10.586C237.134 10.8834 236.985 11.1793 236.787 11.4269C226.099 27.0582 215.757 42.8874 206.156 59.2117C205.167 60.8935 200.961 68.1158 199.872 69.3024C199.427 69.7976 198.933 69.9954 198.536 69.9954C197.794 69.9954 197.201 69.3523 197.201 68.3136V68.214C197.251 65.098 199.625 59.7053 201.109 57.0845C206.702 47.1915 212.392 37.3966 218.726 27.8991C220.704 24.9809 225.505 18.4016 228.721 16.3243C229.118 16.0767 229.464 15.9288 229.761 15.9288C230.157 15.9288 230.503 16.1265 230.998 16.6202C231.344 16.4224 231.444 16.0767 231.641 15.7793C232.779 14.0492 241.388 0.890716 241.834 0.395541C242.082 0.147945 242.477 0 242.825 0C243.418 0 244.012 0.445366 244.012 1.48403C244.012 1.82974 243.962 2.32493 243.764 2.86992C242.725 5.88628 241.438 8.85433 240.201 11.8224C237.38 18.8968 234.263 25.8716 231.641 33.0442C228.721 40.81 226.197 48.7238 223.971 56.7373L223.971 56.7372ZM229.118 19.3905C229.118 19.2923 229.118 19.1429 229.018 18.9949C228.622 19.1927 228.425 19.4403 228.177 19.7377C221.546 26.8604 211.551 43.778 206.751 52.1372C205.067 55.0071 203.435 57.9254 202 60.9417C201.852 61.1893 201.654 61.5366 201.654 61.9321V62.08L206.899 53.3736C213.727 42.3438 221.497 31.2128 228.721 20.2313C228.92 19.9837 229.118 19.7376 229.118 19.3904V19.3905Z" fill="#FFF3DD"/>
<path d="M256.634 51.5433C256.041 51.5433 255.397 51.0979 255.397 50.405C255.397 50.2571 255.447 50.1091 255.497 49.9596C255.695 49.3663 255.893 48.8228 256.14 48.2295C256.932 46.596 258.069 45.1618 259.455 43.9254C260.247 43.2325 261.286 42.8867 262.226 42.8867C263.364 42.8867 264.453 43.3819 264.948 44.2228C264.981 44.255 265.014 44.2711 265.046 44.2711C265.244 44.2711 265.492 43.9752 265.739 43.9254C265.789 43.9254 265.887 43.8756 265.937 43.8756C266.333 43.8756 266.531 44.3209 266.531 44.7663C266.531 44.9142 266.531 45.0637 266.482 45.1618C266.135 46.2503 264.007 49.8615 264.007 51.889C264.007 52.6816 264.354 53.2251 265.294 53.2251H265.344C272.073 53.2251 280.733 46.0525 281.476 45.7551H281.524C281.557 45.7551 281.574 45.7717 281.574 45.805C281.574 45.805 281.574 45.8548 281.524 45.9046C278.407 49.0704 270.045 53.8682 265.64 54.066H265.344C263.413 54.066 262.77 52.8794 262.77 51.4437C262.77 50.1091 263.266 48.5752 263.809 47.4868C262.077 48.6251 258.712 50.95 257.03 51.4935C256.882 51.5433 256.782 51.5433 256.634 51.5433H256.634ZM258.168 49.0206C258.168 49.1686 258.218 49.2184 258.267 49.2184C258.316 49.2184 258.416 49.1686 258.514 49.1187C260.544 47.8823 261.681 47.1909 263.414 45.5091C263.116 45.0139 262.72 44.8161 262.325 44.8161C262.127 44.8161 261.879 44.866 261.631 45.0139C260.544 45.5574 258.96 47.289 258.416 48.2779C258.366 48.3277 258.169 48.773 258.169 49.0206L258.168 49.0206Z" fill="#FFF3DD"/>
<path d="M276.628 61.092C276.628 57.0355 282.566 50.0109 283.407 47.8339C283.456 47.7357 283.456 47.6859 283.456 47.5878C283.456 47.2406 283.21 46.8949 282.814 46.7952C281.725 46.6971 280.488 46.5491 280.091 45.6584C279.993 45.5105 279.943 45.2629 279.943 44.9655C279.943 44.4703 280.091 43.877 280.488 43.5313C280.734 43.3335 281.13 43.1855 281.427 43.1855C281.625 43.1855 281.823 43.2837 281.923 43.4815C282.021 43.729 282.021 43.9268 282.021 44.1744V44.4703C282.021 44.7179 282.071 44.9655 282.368 45.0651C283.012 45.2131 284.051 45.6086 284.594 45.906C285.188 46.2019 285.485 46.8451 285.485 47.538C285.485 47.8837 285.436 48.1811 285.288 48.477C283.16 52.2377 277.667 57.5307 277.667 61.4377C277.667 61.6355 277.667 61.8831 277.717 62.0809C277.815 62.724 278.162 62.9716 278.656 62.9716C278.854 62.9716 279.102 62.9218 279.349 62.872C282.071 62.1805 286.623 58.124 290.631 54.1172C293.402 51.2971 295.827 48.0332 297.015 46.3016C297.262 45.8562 297.362 45.5588 297.362 45.361C297.362 45.2629 297.312 45.1633 297.312 45.0651C297.312 44.8175 297.658 44.6198 297.955 44.6198C298.203 44.6198 298.401 44.7179 298.499 45.0153C298.697 45.7082 299.093 45.8562 300.181 46.3514C300.925 46.6971 301.468 47.0926 301.468 47.9834C301.468 48.1811 301.418 48.4287 301.37 48.6763C300.727 50.9997 296.767 54.315 296.173 59.2125C296.173 59.3604 296.123 59.5084 296.123 59.6563C296.123 60.7946 296.669 61.5857 297.708 61.5857C298.005 61.5857 298.401 61.4876 298.797 61.3396C302.507 59.9537 312.058 47.7358 314.879 45.8064C314.977 45.7566 315.027 45.7566 315.077 45.7566C315.142 45.7566 315.192 45.7732 315.225 45.8064C315.225 45.8562 315.275 45.8562 315.275 45.906C315.275 45.9543 315.225 46.054 315.125 46.1038C312.553 48.3291 309.632 51.5447 306.961 54.5128C303.992 57.7767 301.32 60.7448 298.895 61.6853C298.401 61.8831 298.005 61.9812 297.608 61.9812C296.273 61.9812 295.482 60.8943 295.432 59.4102C295.432 55.5016 298.797 51.3968 299.885 49.0718C300.083 48.6265 300.132 48.3789 300.132 48.1811C300.132 47.9335 300.033 47.7856 299.836 47.6361C299.538 47.3402 298.895 47.1425 297.955 46.6971C297.906 46.6473 297.806 46.6473 297.758 46.6473C297.658 46.6473 297.56 46.7469 297.51 46.845C296.323 48.3291 293.947 51.4949 290.878 54.6109C286.722 58.7173 281.971 62.6742 279.497 63.3173C279.25 63.3671 279.052 63.417 278.804 63.417C278.013 63.417 277.221 63.0712 276.924 62.4764C276.726 62.0809 276.628 61.5857 276.628 61.092L276.628 61.092Z" fill="#FFF3DD"/>
<path d="M314.287 55.7981C312.703 55.7981 311.763 54.7594 311.763 53.0278V52.9282C311.812 49.714 314.237 45.8552 316.365 43.6783C317.058 42.9853 317.552 42.7392 317.948 42.7392C318.443 42.7392 318.691 43.1348 318.691 43.5801C318.691 43.7281 318.691 43.8761 318.641 43.9757C318.541 44.3214 318.195 44.6188 317.948 44.9645C316.711 46.8441 315.374 48.7237 314.187 50.6531C313.792 51.346 313.396 52.3847 313.396 53.2754C313.396 54.1646 313.742 54.8077 314.683 54.8077H314.979C318.146 54.462 326.36 50.1096 329.083 48.378C330.368 47.5371 331.655 46.5965 332.941 45.7073C332.991 45.6575 333.091 45.6575 333.139 45.6575C333.189 45.6575 333.289 45.6575 333.289 45.7556C333.289 45.8054 333.189 45.9534 332.893 46.1512C328.042 49.6642 321.165 54.4122 315.128 55.6985C314.831 55.7483 314.533 55.7981 314.287 55.7981L314.287 55.7981ZM320.175 40.5623C319.532 40.5623 319.185 40.0671 319.185 39.5236C319.185 38.8804 319.68 38.1875 320.769 38.1875C321.115 38.1875 321.462 38.2373 321.858 38.3853C322.303 38.5347 322.551 38.7808 322.551 39.0284C322.551 39.5236 321.956 40.0671 320.669 40.4626C320.471 40.5124 320.323 40.5622 320.175 40.5622V40.5623Z" fill="#FFF3DD"/>
<path d="M331.904 51.5433C331.31 51.5433 330.667 51.0979 330.667 50.405C330.667 50.2571 330.717 50.1091 330.766 49.9596C330.964 49.3663 331.162 48.8228 331.41 48.2295C332.201 46.596 333.338 45.1618 334.725 43.9254C335.516 43.2325 336.555 42.8867 337.496 42.8867C338.633 42.8867 339.722 43.3819 340.217 44.2228C340.251 44.255 340.283 44.2711 340.316 44.2711C340.513 44.2711 340.761 43.9752 341.009 43.9254C341.059 43.9254 341.157 43.8756 341.207 43.8756C341.602 43.8756 341.8 44.3209 341.8 44.7663C341.8 44.9142 341.8 45.0637 341.752 45.1618C341.404 46.2503 339.277 49.8615 339.277 51.889C339.277 52.6816 339.624 53.2251 340.563 53.2251H340.613C347.343 53.2251 356.002 46.0525 356.745 45.7551H356.794C356.827 45.7551 356.844 45.7717 356.844 45.805C356.844 45.805 356.843 45.8548 356.794 45.9046C353.677 49.0704 345.314 53.8682 340.909 54.066H340.613C338.683 54.066 338.04 52.8794 338.04 51.4437C338.04 50.1091 338.535 48.5752 339.079 47.4868C337.346 48.6251 333.982 50.95 332.299 51.4935C332.151 51.5433 332.052 51.5433 331.904 51.5433H331.904ZM333.438 49.0206C333.438 49.1686 333.488 49.2184 333.536 49.2184C333.586 49.2184 333.686 49.1686 333.784 49.1187C335.814 47.8823 336.951 47.1909 338.683 45.5091C338.386 45.0139 337.99 44.8161 337.594 44.8161C337.396 44.8161 337.149 44.866 336.901 45.0139C335.814 45.5574 334.229 47.289 333.686 48.2779C333.636 48.3277 333.438 48.773 333.438 49.0206L333.438 49.0206Z" fill="#FFF3DD"/>
<path d="M369.759 46.5957C369.759 46.398 369.709 46.2998 369.611 46.2998C368.72 46.4976 361.347 49.9593 359.912 50.6025C359.021 50.998 358.08 51.3452 357.091 51.5928C356.795 51.6909 356.498 51.7408 356.2 51.7408C355.113 51.7408 354.37 51.0478 354.37 49.911C354.37 49.5155 354.469 49.1184 354.617 48.6746C355.904 45.1615 361.595 40.957 365.503 40.957C366.79 40.957 367.829 41.4024 368.522 42.4909C368.918 43.134 369.017 43.9251 369.265 44.7162C369.313 44.7162 369.463 44.7162 369.611 44.766C369.907 44.6664 370.155 44.5682 370.402 44.5682C371.145 44.5682 371.591 45.1615 371.591 45.9043C371.591 46.0522 371.541 46.1504 371.541 46.2998C371.392 46.9913 370.155 49.9593 369.561 51.2954C374.608 48.9207 379.31 46.5474 385.446 45.7065H385.594C385.792 45.7065 385.941 45.7549 385.941 45.8545C385.941 45.9043 385.841 46.0024 385.544 46.0523C381.092 46.943 373.273 50.059 369.661 52.1363C369.116 52.3839 368.77 52.7795 368.374 53.6702C363.573 62.6725 353.726 86.3173 342.445 87.901C342.098 87.9508 341.752 87.9991 341.454 87.9991C339.03 87.9991 338.189 86.4169 338.189 84.3894C338.189 81.6674 339.674 78.1061 340.763 76.2265C345.71 67.9172 356.2 59.013 366.89 52.3839C367.583 52.0865 369.759 47.7341 369.759 46.5958V46.5957ZM366.84 53.5222C360.308 57.3795 347.492 66.6792 341.554 76.7217C340.713 78.1061 339.079 81.7173 339.079 84.2399C339.079 85.724 339.674 86.8623 341.404 86.8623C341.604 86.8623 341.85 86.8623 342.098 86.8125C353.381 85.1307 360.901 65.1469 366.84 53.5222H366.84ZM366.692 45.6567C366.246 44.914 365.653 44.5682 364.91 44.5682C364.662 44.5682 364.414 44.6181 364.168 44.6664C361.941 45.2612 359.912 46.2999 358.23 47.9318C357.883 48.3274 357.537 48.7229 357.091 49.2181C358.526 49.2181 365.257 46.6954 366.692 45.6567Z" fill="#FFF3DD"/>
<path d="M386.488 55.5013C383.915 55.5013 382.875 53.5719 382.875 51.5943C382.875 50.8017 383.023 50.0106 383.321 49.3176C384.756 45.8061 387.279 43.2834 390.842 41.7994C391.337 41.5518 391.783 41.502 392.178 41.502C393.218 41.502 393.761 42.2447 393.761 43.0856C393.761 43.5808 393.613 44.0745 393.316 44.47C392.822 45.163 392.326 45.9057 391.633 46.3511C390.248 47.2901 388.714 48.131 387.229 48.9719C386.784 49.2195 386.29 49.3675 385.795 49.3675C385.497 49.3675 385.201 49.3176 384.854 49.2195C384.26 50.1102 384.013 50.9994 384.013 51.792C384.013 53.3742 385.151 54.4627 387.18 54.4627C387.725 54.4627 388.269 54.4128 388.862 54.2649C393.711 53.0783 401.629 48.7741 405.44 45.8559C405.538 45.7563 405.638 45.708 405.736 45.708C405.786 45.708 405.835 45.7563 405.835 45.8559C405.835 45.9057 405.786 46.0039 405.638 46.1518C402.075 49.2693 391.881 55.2538 386.784 55.5013H386.488V55.5013ZM385.695 47.8336C387.823 47.192 390.99 44.6678 391.238 43.4313C388.862 44.1741 387.279 45.8559 385.695 47.8336Z" fill="#FFF3DD"/>
</g>
<defs>
<clipPath id="clip0_505_1642">
<rect width="405.835" height="88" fill="white"/>
</clipPath>
</defs>
</svg>
